<mxfile host="app.diagrams.net" modified="2023-06-24T11:53:23.734Z" agent="Mozilla/5.0 (Windows NT 10.0; Win64; x64) AppleWebKit/537.36 (KHTML, like Gecko) Chrome/114.0.0.0 Safari/537.36" etag="ayDfCDxmcMl9dkXP_Ddx" version="21.5.0" type="google">
  <diagram name="Страница 1" id="Jv8BO_cWJ84W636UbQaz">
    <mxGraphModel grid="1" page="1" gridSize="10" guides="1" tooltips="1" connect="1" arrows="1" fold="1" pageScale="1" pageWidth="827" pageHeight="1169" math="0" shadow="0">
      <root>
        <mxCell id="0" />
        <mxCell id="1" parent="0" />
        <mxCell id="EDvHVRj9FT189KZN_WVa-64" style="edgeStyle=orthogonalEdgeStyle;rounded=0;orthogonalLoop=1;jettySize=auto;html=1;fillColor=#0050ef;strokeColor=#001DBC;strokeWidth=3;" edge="1" parent="1" source="EDvHVRj9FT189KZN_WVa-60" target="EDvHVRj9FT189KZN_WVa-44">
          <mxGeometry relative="1" as="geometry" />
        </mxCell>
        <mxCell id="EDvHVRj9FT189KZN_WVa-60" value="" style="rounded=0;whiteSpace=wrap;html=1;fillColor=none;fontColor=#ffffff;strokeColor=#001DBC;strokeWidth=3;" vertex="1" parent="1">
          <mxGeometry x="1500" y="110" width="230" height="90" as="geometry" />
        </mxCell>
        <mxCell id="EDvHVRj9FT189KZN_WVa-73" style="rounded=0;orthogonalLoop=1;jettySize=auto;html=1;exitX=1;exitY=0.5;exitDx=0;exitDy=0;entryX=0;entryY=0.5;entryDx=0;entryDy=0;strokeWidth=3;" edge="1" parent="1" source="EDvHVRj9FT189KZN_WVa-59" target="EDvHVRj9FT189KZN_WVa-68">
          <mxGeometry relative="1" as="geometry" />
        </mxCell>
        <mxCell id="EDvHVRj9FT189KZN_WVa-59" value="" style="rounded=0;whiteSpace=wrap;html=1;fillColor=none;strokeWidth=3;" vertex="1" parent="1">
          <mxGeometry x="1500" y="50" width="230" height="60" as="geometry" />
        </mxCell>
        <mxCell id="EDvHVRj9FT189KZN_WVa-52" style="edgeStyle=orthogonalEdgeStyle;rounded=0;orthogonalLoop=1;jettySize=auto;html=1;exitX=0;exitY=0.5;exitDx=0;exitDy=0;entryX=1;entryY=0.5;entryDx=0;entryDy=0;fillColor=#0050ef;strokeColor=#001DBC;strokeWidth=3;" edge="1" parent="1" source="EDvHVRj9FT189KZN_WVa-48" target="EDvHVRj9FT189KZN_WVa-1">
          <mxGeometry relative="1" as="geometry" />
        </mxCell>
        <mxCell id="EDvHVRj9FT189KZN_WVa-71" style="rounded=0;orthogonalLoop=1;jettySize=auto;html=1;exitX=0;exitY=0.25;exitDx=0;exitDy=0;entryX=1;entryY=0.75;entryDx=0;entryDy=0;fillColor=#0050ef;strokeColor=#001DBC;strokeWidth=3;" edge="1" parent="1" source="EDvHVRj9FT189KZN_WVa-48" target="EDvHVRj9FT189KZN_WVa-39">
          <mxGeometry relative="1" as="geometry" />
        </mxCell>
        <mxCell id="EDvHVRj9FT189KZN_WVa-48" value="" style="rounded=0;whiteSpace=wrap;html=1;fillColor=none;fontColor=#ffffff;strokeColor=#001DBC;strokeWidth=3;" vertex="1" parent="1">
          <mxGeometry x="920" y="640" width="230" height="90" as="geometry" />
        </mxCell>
        <mxCell id="EDvHVRj9FT189KZN_WVa-63" style="edgeStyle=orthogonalEdgeStyle;rounded=0;orthogonalLoop=1;jettySize=auto;html=1;entryX=0;entryY=0.5;entryDx=0;entryDy=0;strokeWidth=3;" edge="1" parent="1" source="EDvHVRj9FT189KZN_WVa-47" target="EDvHVRj9FT189KZN_WVa-54">
          <mxGeometry relative="1" as="geometry" />
        </mxCell>
        <mxCell id="EDvHVRj9FT189KZN_WVa-47" value="" style="rounded=0;whiteSpace=wrap;html=1;fillColor=none;strokeWidth=3;" vertex="1" parent="1">
          <mxGeometry x="920" y="580" width="230" height="60" as="geometry" />
        </mxCell>
        <mxCell id="EDvHVRj9FT189KZN_WVa-1" value="" style="rounded=0;whiteSpace=wrap;html=1;fillColor=none;fontColor=#ffffff;strokeColor=#001DBC;strokeWidth=3;" vertex="1" parent="1">
          <mxGeometry x="180" y="640" width="330" height="90" as="geometry" />
        </mxCell>
        <mxCell id="EDvHVRj9FT189KZN_WVa-4" value="" style="shape=image;verticalLabelPosition=bottom;labelBackgroundColor=default;verticalAlign=top;aspect=fixed;imageAspect=0;image=data:image/png,iVBORw0KGgoAAAANSUhEUgAAAIIAAAAXCAYAAADHqJcNAAAACXBIWXMAAA7EAAAOxAGVKw4bAAAFGUlEQVRo3u2aaWwVVRTHh9IiS0ttWQtIqBhBW0oLIQgVPpCXtEHWClHRUBVlCRCSRqBfSGrTxFIqiy2bIikQAmqwmiBfLNHUsKhUjbEJEkxlqwsoaBACtJT/Sf+T3jxn5s1986DTvp7kl7y8e+auZ+4599wxDD0ZDgpBLfgT3ACN4CiYB7opuqnggNEl7SmDQBH4FpwGv4A6sAb0UHR2ua1wNDgCboPDXPShysI/CXaCj9hAX/ATeCtKJjwffAae8VGfXgcX+eIOVP4fAN4Ex8HDfKnLQlUWRyUxgJMgI4T+KhqEGEsLyI0CI+gJ7nC8f/ikT8XgHHjcQWc5+JX9djRgsZbPqVgOYlx2opbPyOQkRIEhyK5YzzHX+KA/L4BbLl7a7jSWJpBop5TMrb2F24iOLOBzX0eRLxZXOA30aud+9Aa/gXdd6lcxZrB1BzVczA/D6MwoPltmdEl77AYy97Nc6ksMt9Gu8B3F3yWG6TPv+ixwihbZwrWb4lJf1nqOVUEWaGZli8PsTAx9VGLXujxweZ9rt9alfgljwf/Jl6zoknLO1JUE5hU6sshpZzvYDTaDrWA2A7C1QbmSl8EbYAOosKhrLljB83wlYwmReLCUZ3jx1avBYI/9LuT6/cuXOiyZwEpaaCnRKHIC2MOFSVb+jwXLwHXmSkzJBh/wvC7z9pdFnRWMuZqoswSMAfvAREbvj/AlvAae8tD/YeCmcmqrBq+BITqVlCuGMLadFqIPeDRCpDJe0ZHnwQUGzFZSGWQIpmQ6GIIpe5Rte4dFG1ks/9HjHC5Q8homErN9z+AwLVQFZnLhb42cQaSlLmgAXjmi2b4s0CmH8ok2hpDswhCKqdMARtjoXKdOP4/zmEaXc8liTproziylv4fJi/TWnBRBwgm25O2ZZ1Mez0g7WJJcGEIRdWoddM5TZ0QE51SMooCux3RPkilOt1IerxhCqcsG5JkAeJq/VabS73U0malspZImf4V5kVCiYwg7HXQaqDPqPo1PdrRGtrHdSiFbMYQCl5W+x4TTYboT83lJWx7SSGr4TUpoCOp2KjetB+zeIk1D2OTCEDLu4/gWso0TVoWjlUEv9XBsadaNUH0qk/jmng4yCInIczwawkYXhpCp2d9NmicLaeOYXbR+iwrrwpi4g3y2zuMCDLdwM15I0Wzf6pQh9/XPGm2XaZc5X34xhJHgYw39wWxjr53CUSocDCPAM6PTtz0aQg3dTKTQHYu4ugEO46ziOGf7yBBetfP3NpLDNubbKcynwj8WFu8k45Sts6PGBaaYCRg7SVGSQn4xBHmzP9E09jOGQ+a4m7L9rdeoeL8SHyR1AkP4wqE8kWMN+MgQzjH/4Gbuc5lsCoRSFH94llHzyhC6cRyUGIKkRr/rBEFiNRci36Z8EfjZIis4ks/JN5yxNs+at7pVNuWSxLtKnWyX/U2l/lnuCk73Q1NpqMvdTkY/VtrCuGGO0XaTKLvGY6xMPohczQGURCA+8IshSEJN7gfWcIFlfEM55h+M1u8zTZnOY3S94h6P88RhZgfLefT8j+USlMv9xFaWp1P/K6WOBsY3L4Xor+Q55INUuUGUD4gkjfwi+xvD9UqnEUr+IC+cSZkMtnGQcpv1Oxv9lLuFen3Z3fB+c+YHyVeMfpqy48k9/3PgoSD9Jxhb5XK7DTApJf/1ps4sLkBAIY8nETOKF/0ZSnkO/xsfor+lQW5kHANHWbMrRus3Jd8Yrfcbjq7jHpmwmNIieH4OAAAAAElFTkSuQmCC;strokeWidth=3;" vertex="1" parent="1">
          <mxGeometry x="1550" y="65.5" width="130" height="23" as="geometry" />
        </mxCell>
        <mxCell id="EDvHVRj9FT189KZN_WVa-6" value="" style="shape=image;verticalLabelPosition=bottom;labelBackgroundColor=default;verticalAlign=top;aspect=fixed;imageAspect=0;image=data:image/png,iVBORw0KGgoAAAANSUhEUgAAAI0AAAAXCAYAAAA2o8yAAAAACXBIWXMAAA7EAAAOxAGVKw4bAAAEWElEQVRo3uWaeUhWQRDAV7uz7EAQz7KyCIIwKwIlhLToIC3SiA6tyCKCIJREOs2iMiqKKDvM8sj8Iyu1hDRM7AI7JKSCzMDoQjqorKSsWb75aHh83+fuvqff87nwQ/CbeTvz3uzu7Owy5rx5ApFAtA5CmTWbL7ARqATeAa34txZYCfQisj5AuRttnQoscPJ94oBwjXwYsNCJfCwwzVVn3sB5oAJ4C/xF6oFiB5QBdcAXInvGYsESDBQBbcBNYDkwggRJCLAfuIHvry9wC9+ju9oG7P8u+S7fgRIgG1iskV8NnANqiPxP4CrKJ4l2nI7K/GUN7UC2H5CB8tssEiweQBq+7AYgogP5BOAycBrfwyoT+BBKgiBZcDa1y6eodFiGyrcldJ4CiRYImP44u3D/83D2EGkXyUsfbQI/lhF7/AXk5xP5cbKd8an3EypnSujxkRbVzQNmAJmmszHPE21RqNdsEl9OoT3PBOUPovwblc4mk4iLkdArBEZ18yWpAP2uBnpL6g9G3XyT+PMC7TkhKP8I5QtVOktB5V/AQAm9Uomp3IwtjSSNQYrPaAHWmMCXQDLwlwjIDwf+oPxalQ5LUbnWxYiKdfD/Ld18l9SKfu/Q8ZzXwFgT+LOcBE2AgHycUfnMLicySy2S8GqXVu7zNxx1qu2eSfyx7+KeC8ofNiqfiXbwuycmiiMtFDCBZGrOsYhPjSSZF2n1KF9gdD7Dk9yTQJOBznnhc40gBLfLsm0TGSizLRAwQcSffKzRuGI9GTTJKh3a8xn+kI+E38SQXAMdfECeawTXFGy4g7rcR28LBI09n2kHsoC9HVCuN5/5jMq7Nb8NYrZzKb47SDJ4mzvMQGQb31b/QJ8fuzkRDzPoWTnozxNB+UOdXZ+pxGXAKs2P+Cx6XjQB873pzHb4R+EDa4ykDZGYDnAb0g3w6SU+66hkfUYpn0kl+YyXE5kqi+2aQkjQHBDU2cdsB7ZXgPdEn596lyjsLLeSZ9QYmM8skqzP6Mpnal3IrLNY0HiTl5yhoL+C6E9StIEfLDbjMpmg059Eks/4CsjHEvul60si9ZnOWsvDDcRPwQb7bHFcQVfXeY2mlNHPgPd5Fu1p6Ar7p5CIm9GFQVOl2aXppUjBhjwdS0Md6l4wyczZhPYcE5R/yHScl6UytfMmK7QIsuX2l9DzJ/mAGZbtYDLwRZa5IaSUonReVmZQItZdWzH7f39GtGWRjzTeBD4kSeYz9P6M9DVdHnFfJXcQVmv8ENZeaMxkru/R8N82M1tR7BXumjxM4MMltF+0Ym+/b9Mis9U8grWJRhJxH3DW4XdGt/ewwOFlhlxccu4z25UCH830z+/T8tuMe4A+zFaCL3KjzTuZ7XCymnzDNgzoHKwlabf3+SjfTpblCkyiZ7nqjFdP44GZzPEtdH47PaqHzjoTcVdRj8l1Cw6s65j7aaf+ADfaOgeY6+D7xeD3DdTI8//Pc/LN45mTwu0/DoOMHdi8grEAAAAASUVORK5CYII=;strokeWidth=3;" vertex="1" parent="1">
          <mxGeometry x="2060" y="341.5" width="141" height="23" as="geometry" />
        </mxCell>
        <mxCell id="EDvHVRj9FT189KZN_WVa-8" value="" style="shape=image;verticalLabelPosition=bottom;labelBackgroundColor=default;verticalAlign=top;aspect=fixed;imageAspect=0;image=data:image/png,iVBORw0KGgoAAAANSUhEUgAAAIYAAAAdCAYAAABv2BQRAAAACXBIWXMAAA7EAAAOxAGVKw4bAAAEZUlEQVRo3u2baUgVURTHr1paLu1maJapgZVR2oesTEshKoMWogQtjKAFJKkPWdEmJKVlmRlRQVFYUFGUGiKGlBVkC9lCGxRhFFFWShtU9jqX+T8Yp5n35s3MwzfvzYEfMnPuu3OXM/ece+7ImDrxI+YT54gnxEv8rSQiReWKiThmiU9IPNFM1BCphD/uhxK5MJCJxBLik0hviRdLEtFGrHFQhq8Qj4gfxEVryLxfBhJviRIVZXkZG7HWGjbvl4NwDcEqymbCMCZYw6ZLaokRntzAEOIrcVpl+QSinQiw5laXfCbSPLmBqVgBKlyIRS5b82qIYaR7cgOzYBg3XDCk1da8er9hJMAwOCt9aGJ6EIuJUqKQiBbpQhFclxHLcW0mw+AvL88z5RO9HZQb5CjO8UPuwm4cV7AiDPNio+B9u0TkEFFEHvGRmITraiKDiEC5FmZ8zsZdhrGBKCJi0PYmhbYHEq3EB0eVJRLvRcZh5zGxGxZohPQi+htET41tCMbEh0vuN8EAqkUvRY5oLIabwDCmEntF14fQ9rEyZdOgu+usUp7uLifeyBgI56TOtyZPoV6t/CVSNLSjCAMolRrUKx5YfjTAk3lVJnElF4gw0fUd9ClRpuxW6Pa48oBRRAHRQPwSTUahjkYH4K2LNYhojVvzegXdc/RxsuS+u9L+RhsGP844JroeiZenVaEPjejvHK0PHEpcRyVtJs9fRCpMxmAMYgeCUj3ir9IVfsGkOCsXpPK5oyUuYzvmrFTBpf8k/hB99XQ2HEuqDZbobbIAfas1oK4qg11mh8aX0b4CJsvopkF3W+6Hq7BdUSvXUFmCFxpGBfq2zoC6AhG8OnOFPHucraJcmIY2JKM/LxT02xysJuyWC8sUlzosPSE6YowoA2OMIQYaxgMMVJKXJLg2oz87FfRXoZ8tVXArfOfCg3iu4zVyHFplmcFLrE3jrkQq/GS5kymf/4zTsTXuLsOox/jMdBBf/Cb6SJWzsNtQG2il40FzdTY4zMA8RrBBg7gQfatTeCEa3bQzcadhPEOfomR006FrlvvhLiizVDyEu5t7BgVm3Sl8ksvgQuNF909hLPbJ/IaPz3oTupJX6FOgjK4cuhKl+OIbE77GCndiFGdRrp/JDSNF5IIycS8Oy+53Yr+kfAR0QSY0jPPoZ4zk/hgmfGJhg9foIqFwI9ngKbFUElQGwD+1YKUwu1EwLKt8y30AroHnZ2pwfxMSQfaAdgoTUuOxJg0+x8MAjqCvfLWcx4Szk07EF//tdmawrmlfvv08zISzEv5530MmHKzUGRBTeJrwr86OEseZcAYUIYk1zsC1bNSb+Olmw2BYLcpEfVqBVYKvFjeZQlTqp1AZP6KNZNbX32bfriqJPb4osIbfc6XBDa5qAFbELTI6Hiq0wRuEWcPvW1KKFaFdRrcDumxrmHxPeOx0H/GSWDKw4Si2hsg3heddKkUxIo8lc+FC8q3h8W1ZxIR/BTmBVAP/EMfhZ5r/ABCePnJBSIxDAAAAAElFTkSuQmCC;strokeWidth=3;" vertex="1" parent="1">
          <mxGeometry x="968" y="65.5" width="134" height="29" as="geometry" />
        </mxCell>
        <mxCell id="EDvHVRj9FT189KZN_WVa-9" value="" style="shape=image;verticalLabelPosition=bottom;labelBackgroundColor=default;verticalAlign=top;aspect=fixed;imageAspect=0;image=data:image/png,iVBORw0KGgoAAAANSUhEUgAAAJEAAAAWCAYAAADAbX5DAAAACXBIWXMAAA7EAAAOxAGVKw4bAAAFKElEQVRo3u1aa2wVRRSewi0gbxBQQJFXpAmF0MSEKqEKEigYkUB4KJX+IVIeCqJRNIEIplCKYiQGaCEQaVp5/4CCQpCGH1hIkcQfCpLwkPiHqogBERXBc9Jv05NxZ3dme8N1Lz3Jl9y9883smZ2zM9+cHaWCbR/hBuGqhp8I9YRlGr/CwP+ZcIXwgYqnDSHMIrSNkc8tCN8SbhPuCnwasb1nCNdFO38hDl62bWCUqMyB0CqEnyP45YQHVHztYcJN9KUqhv63JLxO+AZ9+C5CG/zyVCJwuI35aNfJpoug6GvBHyv4w1S8bQDhDvryZUz7UEJYiD7wC5HhWP89wlzUv2ExifjaBjRwwZK/EvxfMK3G3QoI6wkDY+r/UUJP8WL3dKg7lPAmoRh1D0V14gwa2GLJrwV/r2q2VFt7wgH8/hXjMsJBV7EcySQcR913ojjRQ0znhZZOe2vna81jmHIbT3gXv7/GuNiKYR6/p6CJ/kTdJ6M4MUNMg49Z8PMFf2jzGKbcViMQ2HZhXJZZ1OtDWKVp3N+j6qGNjnqoJM30EM+s/QnDDW9hAju4bGyDu4uyRwkTCGMID6XI/xox8KsxNlstx70zfnt66IuoTpx11EMnwd+TBgH0vpZjqdXKOxH+1jicDulG2ERYjp3tCuxqyqAvPBukGvJoN1VjTu0W5EC2dq/zhD/A+Q35n64h/ncgVIvrIvh4LKTeNMIkcd0kPSQVPecGuoTgEfFQ00UPZYrdZq2BwzPOJXDy8cL10DhLUF7sU59nunqUf2LYgrMu2Y+AK1R2ic8J2sB7y9LlgDqdEOzyvknTQ+ctUJ9kPbSOUEc4lQRwOx9F9GNkSBBJvXGEkOVTPgjlFw31l6N8R8A93iK87eB3qTbwA3CPfwitDXXWYDLQA++6NotaWxkaOJsiPfQ04ZUkIi+iH7kWQVQJzkFDeTuU3wqYzW6jvLuBc0joFFs9lKnpN2+leNzQzyLtv5VN1UPfo4GNjvmhdNBDUYPItPNJoPyOMmeMq8F5w6csy0GXsnUU+SFpF8SyK60V2tc/Z3wF/pKm6qEX7/P8kEsQzQ8JIkYbA2eimPn1QFsrtuo29pxBCB/BPeZq/3MuaZiPDvP0UG6UB/eS6HTv+zw/5BJE8yyCqL2Bw7PAD+DkabPEMUef1xiEcDnaLxX/8dK21Ic7Lll66Jwlf1Wa5YdSEURSYFdoGxzX2b3GMPDeLnE3rjMw1n4nLTw99HnUB3cODWxKoR6qstwV2mJbDIJICuxu+O+ARU5I36ZXB+SA2IfTuJ6tGpKhfpY0PVTgqIdeTWIQDSZMIUxNAiajvf97EHlBw7yFyCG5HiR7PmDgn0Db11RDFn2txZgOj/LQZooO97HgjxP8ISr97F4H0Quq8QBZCfJULvZxgAjvIvyoELOdbjI/lIjy0Lao6N/LMtIwiPLQv7oAzm5wFhnK24rB6xByPx60H8Wy4/JMOVPOSd9+AZyrKvxrfqmKcH4oB2sjCzjvOOhlLGejfJJcOZg2+c3zzqnwmVs+i/xsQITHyQZj17ldNX7F5k8Oo8Vgj4HO8LL1J/BccoXGYU6xCKIScIJORawAd7GFnwnMHIuh/e5iSeQZrZcPnzP4h33+z4avc8SY1iHFM1KFHHNOQMRWQalL8JS3U/0328tfgj/z4W8DPz8NgmgB+rJd61slytvheifKyvAM+fpDcMYLzmbAu54YIrAvER608LOvaHMr/CjH9RQffpHyP+a8OSAGdij/LLf6F7CB6Z8DklTpAAAAAElFTkSuQmCC;strokeWidth=3;" vertex="1" parent="1">
          <mxGeometry x="1542.5" y="599" width="145" height="22" as="geometry" />
        </mxCell>
        <mxCell id="EDvHVRj9FT189KZN_WVa-10" value="" style="shape=image;verticalLabelPosition=bottom;labelBackgroundColor=default;verticalAlign=top;aspect=fixed;imageAspect=0;image=data:image/png,iVBORw0KGgoAAAANSUhEUgAAAIMAAAAcCAYAAABCrQzwAAAACXBIWXMAAA7EAAAOxAGVKw4bAAAEoElEQVRo3u1aZ2gUQRSe2BMsiQ0b9opgr4g9lhgrVsSoWMAooih2Y4sNSxTsxt4VUbCb6A8xCMaGKBYsKEn8YyUWENT4HvctN64ze8X1wm32gw/udua9nZ2Znfne2xHCGinEb8Q8iVnEQiJw1CRmS36+E98RFwsXYYVGxPvSQFYLwsc24ivYbyQWc7s1PNGFuBRvMg9mxwDtRxLHEn/Bvr7bpeGLJcSuxFsYzNEB2JbFSjAMtm/c7gxvXCZGEo9hQJcEYMu6owpxC2wPud0ZvihBvITfKzGg+/207Uwch9+PYDvR7dLwRVdpJZiIAb3uh11x4g5iBLGipBfqul0avliKCcHohgHN9sMuCVEIYzjschzYP6yJ4ojxxJKmsobEocQ2eClCjWbEfsQKPur53bY06AUjV5CHt7yEhQ13whzp/1bYHXTYRJgGDcQDPkt4cjAdUJZMXEfsj7A6gxgVonYVIaYS5xETie8xMVTgyfKVOMgfvXBR+l9YeJJFeRhwFTghtds0WQy9MMFBE2Gm4nm2IlqajkFg1CB+xvP3CFHbVhF7Sts1v7zHNXXPoW0DfTntpogcnsE4TmOTKG0r4j/ohSPE58QXNvAJcWEQbahH3K64PhvP+UBaettLIXX5EEyESqYVuCXun66oyy/3J+JPbHeWWCY8CSdzmMnOpyjqVyauNl2zWy+0xrJsF4OZoIfwxpthhM+LTNf5HqVDtCqwVouV/hsRYJKmL7nsnj+O0yW9YGAbHKzTdEaMYul0ml6Yr7l+F8/azoZ7NCW+FJ4UfssA7GYJ77ejCOH9BFBXU5fLNvhyGolVQOfglOl6H7xpZjx2oF5QoQzxBzEXAu5fsVN4vwXtC9JHR9hnasovoHyAL0fdhTrTOFixtJRCTsGMgpRf6IvnPGuTvzHSZAj2RTK2rZmaiCMXeiHGl6NkhV5gNMcNcqVrrBNqKeqOEN7P3k7HWouODxatsK8Hi9doU3VFWVuU3fXH0RWFXhAQQsaMLYfGTtX4MPTFARs76Brxg43caFO7MvGsqsGLCWGOwUAdtOe5pnwOylN8OYrS6AUDbyWhlIoQRVjohfE2PmQVCCq7GG1Dm6KhF75o9MIuTfTxPxGLvj+hKb+I8v6+HMUjrNThJhxlYNvQxbtO1AudhOfrrXymYxSe87ZGN53Mh3YORJs2KcpKYeL+8PUyFMFSPMOizlHcaK1FnQThzPMLOabllcO4NCzHN0x1C6GvGuRDOxsI/ZGBFSi7ozOOQ7LkASryVrCA2FtRdzliYPM+yMvuWGTisuDnA/zw9doOmAzcP7cgyjiOX0McgrCaz4vWl3QCp+UH5WNbOQX9URL3kQgMjM8D662SFatBTqrMxe9ERd0WmkRIAmySIFAMJuN6GwdMBp7Qe4TnTAcPdi/T9nqaeBhaqkk+t5XPmXKm+BzadADbXDomQ7xwUaDBeuE7Vozibnc4H/xxbDOxsaJsMlaFZW43OR8sWt9pBrw0BPBT8fdBHBcO3Qb4sMpVYlXpegRC4reaFcOFQ3FG/Hn4KAYC8qHwHkV0UUDAiS7+FLBXeDKQ54mTiEWtjH4Ds3BHJYCgDjMAAAAASUVORK5CYII=;strokeWidth=3;" vertex="1" parent="1">
          <mxGeometry x="969.5" y="596" width="131" height="28" as="geometry" />
        </mxCell>
        <mxCell id="EDvHVRj9FT189KZN_WVa-11" value="" style="shape=image;verticalLabelPosition=bottom;labelBackgroundColor=default;verticalAlign=top;aspect=fixed;imageAspect=0;image=data:image/png,iVBORw0KGgoAAAANSUhEUgAAABAAAAAOCAYAAAAmL5yKAAAACXBIWXMAAA7EAAAOxAGVKw4bAAABBklEQVQoz2NgwASWQLwEiBcC8UEgrgBiRqhcChCvhsqtA2ITdM3BQNwHxFxQPh8QPwfieiDOA+IcqDhI40Mgvo2sWRZqMzpYD8QfoDbCwFQg/g/E55AVzgdiBSwGHIIqDkESUwXiSiCWhwmwAvEKLJpZgPgTEP+GeodkYAy1/TgDmaAYakALuQZsghrgTI5mJiB+B8Q/kaKVJGCEx/+ghLUcWUAfiMuBWAxJrB5qwFQsBnhD1cOj8A1UcR5UjB2IjwHxHyBuR9PMA8QbgZiDAUnxFyC+AMRSUOdNAGIXIF4MNYgJqlYcml4M0Z3kAU2qc6Ep0hMqDrKlH4h3APEiIJ4DxMrIGgHeKDPbuvf4uwAAAABJRU5ErkJggg==;strokeWidth=3;" vertex="1" parent="1">
          <mxGeometry x="337" y="603" width="16" height="14" as="geometry" />
        </mxCell>
        <mxCell id="EDvHVRj9FT189KZN_WVa-12" value="" style="shape=image;verticalLabelPosition=bottom;labelBackgroundColor=default;verticalAlign=top;aspect=fixed;imageAspect=0;image=data:image/png,iVBORw0KGgoAAAANSUhEUgAAAA8AAAAVCAYAAACZm7S3AAAACXBIWXMAAA7EAAAOxAGVKw4bAAABVUlEQVQ4y5WTPShGURjHT/JNkRQ2k0IGUW9vsfheDKwSZZHBKpIMSCxEFmI0URbkYySDzGRRRgZEPlKv36n/rev13PfNU7/hnt/5n3ufc8517nc1wAJMQ7mLrgqoDg/0wZJCi3AHBUYwC+7hMRiohO3QhDFIQLcRjstdBAPLUBWasKsJ7UZ4Qm7eP2TDYUgWwzs8Qa4RPlK4y6mvWEgOSW4ZQf+iV/iCQmsnTxXuNFyT3LkVLINveIBMw08qPGeF+yU3I873RL7DkquSg4bLgTf1a52/21M4brhmubOoa7ejCTWGW5GbjQqPakJP0ngLfMq1RYV9X8dwDY1QB1OwpovjF8h3aaoVxkW9rmlCu/3vCvodsGQpXMItFCW5EniGG/2Of2pEK78Y4Q31Gov6LP85B+ovedEP6E3Vk/9D9nUMeVAL63ClXU9bPjSsKzqjs81IFfgBjbhOAw5TIa8AAAAASUVORK5CYII=;strokeWidth=3;" vertex="1" parent="1">
          <mxGeometry x="337" y="69.5" width="15" height="21" as="geometry" />
        </mxCell>
        <mxCell id="EDvHVRj9FT189KZN_WVa-13" value="" style="shape=image;verticalLabelPosition=bottom;labelBackgroundColor=default;verticalAlign=top;aspect=fixed;imageAspect=0;image=data:image/png,iVBORw0KGgoAAAANSUhEUgAAAGAAAAAWCAYAAAA/45nkAAAACXBIWXMAAA7EAAAOxAGVKw4bAAAC8UlEQVRo3u2ZSWgUQRSGO3EJGARRVBC8DAghxg08uEfURISgiHEBERQxqBnFDQ/iwSWKiqCiuBySccElgwreIohglAHFi6ggqBeRmKgn8aKg5V9V/zg9M+np7plKQ6a74YMw/ferqfcmf1W9tizfl9gCHoJXoAd8KKCdDS6CK0VyFgyzyuISw00FioFG8AAIcL+AdgJYDXaAr9R/Bhv4uZ01IA7awFtqf4HKMki+nN8Pg0VQQS8wSTs9aCvAN+qPe9APBV3g4yBM9hBQA+aD3SDFeUuqTQ70mkGneNBOtn2JJR7jN4PHg7AA45l06RAHwaIBKIAYC/6C794sQrTaLGWExzHmgEQZ2M/EgShAMwPe9ahPUv/Uxxj14FBUgML+H/fo/33UH3XQ9PNfJFaCTVEBdJBqncg8/6/z6f+LHTTt+TsE9cXHhLgA0qvVIvIMXAI3wTYwjv7fl12UYv1fjdNlle1VVAHEJO7F72U/JE6BDgZLmvF/cRIciwqQ/cAn8BxU5dwbCX4y2Haf/v8ItJC4XmBFN+81GppsE7hcwsk7l7UBF0AuhuIJLWamg+Y9g9X69P+r4IQNOcEv4Le53YFYmjNGqawKugAbKUw53E/7f68h/693Hit0FqTs4h2F+wr0NOT9O4b8f2F5+7+/Aky3CWMu+/+tPv2/zUEj14OGqABauIuiAg0w8YaaGjP9H3W+qIwKoIWnKbrl4v89Gf9Xv/IKc/2fkifbyt3bSwO8AAeCLMB5l3ZB2v9v50x4lov/dwf4a6vV7Yv/291S2AxmBFmAPS4LcGd+/0clucrB/3upP2KF+vJeAHn6/aNfA+bdW889u8gsmqol3eEQa6pt0IaQFyBmy8UoN/EZejybYOrN1F5wWCdSBeHhRL2vnWd7djR7+E089YqMpYnlYK4uWiiSPg0sYC6StlwkwDK+LatzOgnvZ4vgBriuT5dZnp/S64D8O+vZdRzsWj9H+k7eWxGSArRzvmkSxP7ZOan8BzZNBKdZ5BRIAAAAAElFTkSuQmCC;strokeWidth=3;" vertex="1" parent="1">
          <mxGeometry x="2082.5" y="417.5" width="96" height="22" as="geometry" />
        </mxCell>
        <mxCell id="EDvHVRj9FT189KZN_WVa-16" value="" style="shape=image;verticalLabelPosition=bottom;labelBackgroundColor=default;verticalAlign=top;aspect=fixed;imageAspect=0;image=data:image/png,iVBORw0KGgoAAAANSUhEUgAAAG4AAAAXCAYAAADqdnryAAAACXBIWXMAAA7EAAAOxAGVKw4bAAAEbElEQVRo3u2aV4xNQRjHL1bvJeqDsgiJXiIE0SW6sC9KrCXiySKiJaJ3Ei2sxCq7SLRFlBBZVu/xoCQiyiJC9BoljP+c879r7t1z7p259whOnOT3cr7/zJmZ75z55pszgYDRJSqA4WAKWA4yQXOD8uXAaHAYPAafwFNwBaSCYoq2BMgGBQP//CXag/6gmwMDQeMwfRswwEUv77cwbUAjsA4cB4I00ChXCawHn8FFMBYkgsK0VwfTwXlQDRQAO+3n+OGyXnT5kl9Vxu0t2A3SQL8w/TiQAS4o+g9gL8cxKdaGNGBlTzS08gt7BXJBnyjajuA0mMf6ZwZ8dVlfUtARgzX0DRV9ihcNSGFl2yNoCoGV1B0FpTXrXqY0tpPPHJfKfn3TGw+RTP0PUMWLBmxhhWMiOG0PNftBUYO6E1nuc2jM84Xjsti3c5r6zdTf8KoBD1hhvShfzW39Ly2k/Gtw0mdOk3H7OcdlgeE4r/GiAYmR45sYRvv3GFY/wTqugTk+c1xTJQT01NDXUfRJXjRgFCvb6mArA57Rnh7HM+TqsqvPHDfeML6lxBjfZFyyvh58pmIFaM37GaxwtEOZxcrXVj+OTubYeZyvHLfXML5lxBDfRBfwECyxvW0lzptAb96XFdYNKyMT5ve0HQv8v9SxKQheGMa3XOpX6z5kCL+Y1LD7RcAlVvbIoVySMieP+UMDJNtYk/HBC8p61K5mytik2eMTkUlm+V5AdOAcfNjFvpSVZTrYdpjtpvwWx61V2uAFL+zVoGfxTaY4izTIVuJb5WiVy6nuHgs0cdFkumfxeWVfetPZmAcJX4ko7xEJHrVpH8cmxzBPvq4jHkfxTY15t46D7RttJzQbV4+bpp1AyzDa2fuivotvsw3zN534ZiXLwt4njJi/5TrYEpTpZYdm4yZzIzlLWfAIJt9yt2WiTxzXXOlbF8P8bbDO2x8Ut46Sv21xsb+hfVMMneusPL+fz1aUE9ivL3opjhhpEt8GUfzRfV7Pi2/JLvbgL4uDv79zrvVUdJh246GuB47bz76dMtyf1IpvYym+EEETnM5qK/eU3Q2Zn1j2+3Ekp2fiHKTF/IXkFXfiW2hZ8e0V+zbXML6t0hGPoHhPlKlUcYpcearx0IqBX6lrZdC54uAdy8332TTZQgkB3TT0tRT9IJ0HNKY4y8WeRvsu5d400DZMt5y64/pvat5qVtLdZ46byH7JF7qkhj7ZIL6FbOzey3/Gw8ri00N/L1hTwNH8zpFHEcSRX5vMcicjakPPgcuMbyV95rgcjsVVTX3wH+Ydk4fUt3/ViFn27rV1viTdXk1adpnNn7UHV05pYqhLPQn8HyffsltcjVZX7FW5rZbN8yulQN/449tf4ahCjLPpfCGDM4k8FHUAbMgfRsRCsI1jK5RF2iGw0T5oFP3BFXiwRRaYGjbgJbj622CfTIpaVyIXLFf4A1GmC3ftBF3MsOfzEH0NHziuAE9z9XI4ndWD+7lhU6C1cd/bQd+desdx+QmwERPl68yuowAAAABJRU5ErkJggg==;strokeWidth=3;" vertex="1" parent="1">
          <mxGeometry x="1560" y="143.5" width="110" height="23" as="geometry" />
        </mxCell>
        <mxCell id="EDvHVRj9FT189KZN_WVa-17" value="" style="shape=image;verticalLabelPosition=bottom;labelBackgroundColor=default;verticalAlign=top;aspect=fixed;imageAspect=0;image=data:image/png,iVBORw0KGgoAAAANSUhEUgAAAG4AAAAXCAYAAADqdnryAAAACXBIWXMAAA7EAAAOxAGVKw4bAAAEdklEQVRo3t2aeYhNURzHZyxjXxsGGcoytpKsU2LsRkNkmZStiCxJlmwxJH8QIztjGTtDluxDEYUk+77GH/ZdQgrX99z7ffPOzLt33rnHe6nz6vPHu/d79nPP73d+58TE+PpZCWAYmAGWgO0gqRB9GugFurjQH9QuoO9WiL4fqBdj5M+qCzLAefAOfAcvQC7oWUDbBGz0W0ArkAXOAQv8AdU8tEU5uDngAfWCV2AHWAVaF0izAOwEdyX9W7ALrAbtDRuwZuAU+An2g96gOt/FgqZgG9jE/owHT8A03QKT2al3FfUjpIFoqKAfIOlbG/iFlQQrwS9wBjQIo58DMsFZ9kmybsGTmMFqRX0W9Q8V9Yuof+PMPKMGrQq4wPZlqLXPKgKuM81XUFy38EPMJF1RH1gq1ynqL1OfY9igVedSJ9o20WfasUx3QrdwsdZ+on1LUKxsYNkbpKCvwCVE6McYtjxeZLuyNNK3YdqZuhVowQxuK+oHSQOXqKDvJekbGTRwW9mmp6CURvoEpm+rW4HJzGClon4d9Y8U9Znm2TcrRZqM6Zp5iJXoG4gLJywNhtMNz3RcU/v5YVagv2KBD6lfr6i/apZ9sx2Lq0HnTPzXyqcGOKCyXL2gGxpPT2g36AA+075VUSwsMNMGK+grmmffrK5SH0yJZkFjODDDXL7AO6zALQ37JibBqDBkRta+2ROhToSopbBMudVhg9Sm2tEaNBGi+u1EL1zfr2cFVijmF9A/Z1QkHDepf/3v9k3sdew9jxVBFml44B+Y9lm0Bq0Sw1F/vGdGnn3rp5jnY+pX/Z/9m1WM7YoE5TXKT5IGfWe0Bi6DBZxX2L/FK+RX058nlW//NtoQ+9ZZ6oPpPvZrXRy33956yaQEY5lBz+cVC5jskWFLvr+hWIEhUqVr+Ny/NTRk4NKkNg1X0MfyxGUPOAa+SOlFxGWvMxmCCVpJAo+jE+ER2e+X+TTK9xT1iw3cvyVL/TpQI/0Cpv3hOFqhghHBTvPM5Ag1fRQLDcTk1vi0b7si2HFJLsvNv1DRZ/lVaVpEu8Zr1D+XaU95CaZTkFuIfftMj7Oy9CzFQ5/ob6ZFw77ZXiU8OetjBJmrUY8rbNdajfp/CZ4iuIsmUOBxsirOxOz316Vn7bw3lNZQn/atp3n2La9tI6UDZB/HMVYnqU+8DpDtQRCCbI/3OaFhK2shaOyhz6b+gWIlTT5/E1/ONbZvhmKaWGnrJa4xlCgsnnbHKSDk3TwenYtM5vNZHDjukVcJhsuEfoviJjVwVeFAjJE/sS+2gxC/QiNSIdqSDFxk0yk5HS5zcf/hPU+3y4LmdE3T2bmXnMGyyoDljvuezwgvBZud455890UOMlCdWMCmreCXfEvSf+QhLeyBVd+wwRPnkifZzqPcKpSTPpwGzuGq7aSN43NxvWG2SubizGeWY+ts918KJIvIgTWVsyHVJY4p7ol0d7md1QP0dQY8Tx/HW16pLvpU3uiqYOjX15FHXfcZknvJCNM+xzETH02+fnIN5v8Faj8j34XFJLUAAAAASUVORK5CYII=;strokeWidth=3;" vertex="1" parent="1">
          <mxGeometry x="1560" y="673.5" width="110" height="23" as="geometry" />
        </mxCell>
        <mxCell id="EDvHVRj9FT189KZN_WVa-18" value="" style="shape=image;verticalLabelPosition=bottom;labelBackgroundColor=default;verticalAlign=top;aspect=fixed;imageAspect=0;image=data:image/png,iVBORw0KGgoAAAANSUhEUgAAAQAAAAAaCAYAAABYSIIvAAAACXBIWXMAAA7EAAAOxAGVKw4bAAAKYUlEQVR42u1deZiVUxifaRUly6QU2Ss12ohs2QshWXuUZG1QUSprIk891YgWO5GIyJKQPZJqQtqtEaJFVEJZquM97/nd27nfes53Z+Z+M93veX5/zLnvOd/5zvLu50xOTqk/YjThfUKtnOyTfbLP9vSIAwgCaJsdj+yTfcrmRt6J0IxwHKEpoYoP3d6Ov6/H5l/hX6fMj01VwiEYm+ZqrEzGJvvEZP52I7QkHEWo7fH7HtvzwBQQZhD+JnxJeIPwLuFbwvDUxS46EiY62ngHDOC2GH7f2YRnCNMIiwgrCdUsGGIXwlTCJozHOxifpYSxqQtHHE74KLvZYjX/JxPeIyzGOphA+AxlTUBzsPo7Y328kDCSMNQDhYRbHPSnwOT2oh9GuNvkpSSpRT/CBsIXhB6KGaTQVCZcRZhNyIPk+5NwrUZTHYzjb2/OmvEFIKV2Z8JLYFJfGdTJJXQjrCIsJ9xMqOegqQBmOI9wIGEvaED3ZDddbDS2JwgLCUd7/H4kYQmhNYReBudNtCB0VQJUbMY6XUO4CWv3KAd9Q8LF2L+/g/4vwu0oPynshU2w6aVUu1Vt9ED6DpB8P+Bl+dpv56BsbMwXRF/08+EQurqEmYQthFGEGiH0Uq2cQ5iL9jtkN1/G57oS4TXCh0pA+dIdCsEVk3kTOxO2oj99DQXVWtCPslGJ1gPHWHRuqsaZcrXysShvFvNFMQX97BRAI/0fPxL+JVxg0fYYtL3FrUVlnwzMtZSE68zsejYNYzJv4lTNmd7cgL6JRn+myQvaYnH/QTjMsnMX4UUvOjjQz2oQY70gKmJBCCXhPWnyoU5tNhxMve4RaHt+dvNlfK5rETYqe9iIfghhQUz6PhTr6DdlYobS9wC9XLO7hBE30jZBlwida466vbSyVmVD7WVVTyizx/N3khRiGWhuj9B+DUs1LPuU3Fxfjblob0jfTznUYtH3IvT9ZUP6F0D/aRhhFTg6hLKNInVuV7eqL+7AxqlYRuz/B3x+T0QxFin7MdI7flP+kOyT4bl+AHN5qoUGcF4M+l0d2rlQYXUj+38N6AtNN8AWFfKI1MHd3aoJb5zry8CieBXf72HXsyc/YUednsY71qpISfbJ8Fzfj7l80JC+k4H6XBr9Ps3S/m+q0Z8RRJgHh58kfCWNDsp2BjnKqoVHEEp1ENsizvscYbxycrL9vx7eVUeYksOcSzXpn5ue5CkXG6g9POjToWJOIjyqsj1961RCLskbiLWPI7xFuNcdPk2pJ8NZjxGeJDyCqMs45F6MViEt6/4XaMKuIL05LdVxH2Zp//cytP/FdRqnOKuccv1dsFgXbgtRstkjF293fPsSj3pnaGPTezuXnFXAPNe51WexH6IoHnY15z/MA9Ot6fhNbuRfCed61GuFiEsLj9/6YE6ujKhKr9TmdQUYWMfwkG5Gx3+Opf2fyGv5JIxwppYoULUcLtwaGLzvCXUcv9VC4pJQqqGr7nhtoeybof43VDaoOL+YcFzEfjzj7zzjTTXEnerNjPcbwix/TVBcDmnsaJfDb0MC+jMrGgPgui0QnRIO/IsDa5ebSdlSWwMy/v8f+jhX5aqEIpEAFJT1J1XeZGLB9HIquSYFx0HFx/j9fEd5Bc00+inDqt9SpBkXB4rsHZlSQvM4zPD5/TJtEzXUyhM5ICcHtF0RzHmNWujJ8g0hDOCG6AyA6+8IE2Cytll0xChxTfqekv26xoDJ32Jq/5+iEQ6N6QaWabQ9g21M37rnbeOavosvYf87jimL/bWxmbSdq/8JJnldgMNpNTStqprq/x80y7BM0sfQfj+tbCXmxuf0KKfqHl9M3yd9FMcir143D9Lw/rO/6QrzcyWBbQ1Hf34x81nwfjGy/7tqH9vVoOFclefPsdGrPNDL22aL/OHVYSMmMgyrW9TNhc0vVK6+J02rbQ4+129Ha2Nzp+E7pU17o8/YyHE7sQxu/jqalmiTGZpwtn1tQDsAtDO1skHa+M9GSLltqpZQIt+bp9nbr0ds40yt7+OLkQE/b0j/gqn9380uxMUSsy8Ov4wgfKfVf5MwUB2uKbbJqO9Qy+pb1G2t1WvkQ5MIf47x+K2NVr+n4Tu7gwEMV1l/yfpFiolIKVPmGMDx2nc0sKh3n2ESSo52XHy9Y6096qGab0YEobHld1jY9KwNCOW/iDRmfVLnPm0fVsL+v9ZQ8K02jf+3T++iDg7LCHiGSyjcx0zlK/sMPJYYIRKIw1nCxwvdSBubggj9TkRXpPTcswyr/6dHc4Ry6E4o6RVK20MLzTlUXM4wHQin4F9aX/4wFzbsz3nZou/V0kvd5qS416CBtklz/PU9mm9An6/Rh2U7yglNEkeJqc5KP3+gxBbuRPTtyQBtZh02qEeCjthBW3B3RHj/BH/zwqqdQ5Wzy9OsiIKOlu8/zC4BJVmvMDi9OoX2JtCu1Mo8fD6cl9EGp/iEWn9GfWnqvqMikL4m2n82Buu40NL+t8n/5wqfo8LICKrJP/GNkYu33Y4lT/t/Qeqi0zl2MkPwVct356rIAde9L83vGKBsOalKFwum2kUBOP6/IfykpKve2VriSsjC5csuhLJdkxJ7bgB9ZVxQI5S0De2L9E09ZNH3dt6RoYys409SxyaUfpK55qUqXIkKy+3yAPiWkoRkaBlDBvA8+tY5ROpoBz3Yt6FdriAvTmCaTXZXQiWZS0wWUdpj+Qi+5fEQOnn3wSWaGr0i2AeTrDcnNWTF2tlWlWDkW6eTuVkiT6hKv4Hx907BDUGVMjzuNbULQAz8UCn2/3DTl1TWThkNMqyzk3bBxbp4HvaRWolfthif7ksszku18snub0kykgmG762o3S2wtXzcJSfvMeSzDBtVeM+X7qnUDcm3z4jg03R8x4JI3aA8hiEnLznisjZ8kyYPxcgkn30MvrUTLgFpHYNx1zNRmxrQN7aw/1Mq1sVpwK2QjAEbmj3z07TrhqbEdNEmDieNc5TXxkYfgYHCCT3ODhvtw+xmbMsWlL4B33fuBt/DMGTALc4pNw/njPyp7jT0Spnl7LkBHuWD/e9Q4EzMJYiY5HkwAB9HH2/qD8wcw3zlm0CG3+zgA1m8+dfbXfZSomP+tJahaJL/P1hjAHWjqBvjMFnzEbduhklqoM4JsCooN8MJqDMw3jnyMu7OzhPkJ7CDZKI6gMJpqktwL9zhCC3VCbCDC7WLP/vDOVYbCUPt1J1xrMpeoEmoMTnl6mGPfBHGoAA36J6LNOHb/G19Nhe/R1jvNBzC6o+yUe78DmYAW1BvAkKrx0DCdYAfY4SZ5slJMUWYwy4IXQ9CePMAaDdnwd/zuft+vVIf4zFwci5zhD+XI23fYQpwtGs25kSnX4Xvvsu2Aw1gC7+OQxwLEOMfjCuvcx2ceIeYL9o8ZGT1cSeysHTvhjh0HYO26iG8NxnOmUW4PfYehMsc6mhxZIHFlhFcg43Z2eyfvXC23Qlgxv2wuQOu2dJVWE7K6oMU1y7BJwhd7fRPvYqdmXZvzOGnmMdnFeOOw8lVZkoHQbA4ka80W5dG3tCHvrFfCPp/FKZpVWv1hmMAAAAASUVORK5CYII=;strokeWidth=3;" vertex="1" parent="1">
          <mxGeometry x="1211" y="160" width="256" height="26" as="geometry" />
        </mxCell>
        <mxCell id="EDvHVRj9FT189KZN_WVa-19" value="" style="shape=image;verticalLabelPosition=bottom;labelBackgroundColor=default;verticalAlign=top;aspect=fixed;imageAspect=0;image=data:image/png,iVBORw0KGgoAAAANSUhEUgAAAMUAAAAXCAYAAAC7zovUAAAACXBIWXMAAA7EAAAOxAGVKw4bAAAIHUlEQVR42u1cCWyURRQulEsUkFioAaoFRERUCiIiUJUKihYClUvSKEdBQpRDORTFA5XDcEiAVgxYbpFELlGqHAZQxEQFLAjRgIAcghzGKGANdnwz8+129u9/zOwu7t+6f/Il7b9vZt8c7827ZhMSjB5Wl9CfMJ4wk7CMcItm2w6EhYQDhB8JPxE+JnRUaHrJ/uOPPx52LeF5wldYt0OEQsKrhOqgqUlYHkMe2xJ6EDrZgL9vaaG/k5DlQN+d0MaUAd7hPMLnBAbU92hTg7CSsIvQjVDZ0t8WwnOENMIFwm3xzegLgehNOEZ4LXSNWW3CGMIeQhJhrVR2MeNzJGEJBDewJ/8krCa8I8cRQj+UsJjwhUJ/ibAO9I+Hy8hd6OwHDU3DJ28poYoDDQkJ20o4TjhDqBDfkDEXiBGE06W1bAhNH8IR7IMBPuD5VmWTa/DDGij0I6IlnUxKlivdBsIOQiUPugz0tzq+IWO+uR4kXCbcp0G7G+vWyAd8DwIvxdLM96TvpQhFw2gwsAad9XOh6QGadI3++GnxF2FUfFPGdGMlwt9bo0k/jfCzT3hfjP1WqEk/F/TR4J9VJJxFh/Vc6AoI5/XNIXbC/biOP//BxuqEdc3RpH9Wmsa+4D1gys3WpN8H+kXR+PI0dHbAg+43wmGDfg9LgYs/MdxYL2FtHzWgH+IDvhspplBPDfq6MLM4/cBoMDAKnb3tQkOnAyuCbdpA8/SZHd+UMd9cU7G20zTpxxJSfcB3jqE/0SdMf4JdJaWI5SEn0QLv16Kzvh7tvwfdp4Rr/iebis/ZYMIqhPhWECYSkj3apRAmEN5D7oe3Gy6jd45tKsk1YAuAWVKxcB+OdQ4vIhTcXEV6jrZv5n0J+N6rSZ8Xhj/BMmHjT0QsOgkLlQE/gUvk9Rr2ZkAaTxLmEB4iVCunAtEWJuBHhMbKCdgWiiTb5eQ9ig2eiHfVEeHjdnJXB+H7jDBJ/h3y/g0ELaaEMYbaWF++Zv8gejiMcKPP5/4oeJ6jSb/f0J9gT2LTD7JZiIBzsl+jnyrQmMyCC8hkPyWzoRFPSDJsymigfnh+jcjb8ITRppKNHfJ5ayycJXTJXoFWbu3Qb0+YoBY7mb0ok0+O/HwSnlCIto8QLtqsG99IM5x5jZlANFZ4XIT964bhhv4E6wINsdLh83noLM8gUvUYTCi7ieaa8IYIJuR2ZYDRQl9DHqqi/IHz0czm8yRsbCa1bvD9/ZjreR798+qB3y1ZZS5877u0yQ5fKIIbLRcnn3V++DhH+0gocpST7U34RW4oMPAnWC2YTMXOyRhhJzPpqBgzXw0hvxmoewowtjOyLLbot3aUcHUY3z8Y4/ja4XNe5vIrFi1Deb8N7Tp59D+6dKhRVADwk6mdQ5tmshQjKpuuCU71jYS/lQ2YHkGfqSU+asT8LQVP32rSm+QnxJHMZA2Jo9YP+BPJEQ6E9/WCIhjtyrAvUeBtzwqFk6L8X0854VI0/DtO90uJ8ghGAIvgnPeL7MTVHmtzwkF89wdh9tFREa6xUfQnZmrS6+YnRAj1BIjHOdC0xOf7ojjJm0ubFWVOKE5hDOMN2nRVFEItD9p0hTZFUSrLbEybYyhqu4ICwh7Gdx0Ms/3rCr9bIuTlJqWv7hr0dRRl5BWdY62Uzps60DyDz+e69NNG+hDagwqcFkPLsFBcwhhGGrTpr8y3RzROzGmANs3GKV6iaMsAzplVG+tq2aC5WizLQcKar2aIRl7UTxJ6mq7cnLtOg763MkepXsQDQHjW2b4P+hMuGUNRZ59lMKhxena1qxnWAiXo0UBL6Tgb8XASY5hg0KabsjhJHrQZNieFjSDxsCl7QjEPvtPz1UQl8zYD3itjExZEaD5XiYJCCpyWuw39iaM6xGNBvEnDn6iDd4kyghJCxx3AewwGtRzlIFXDnJTmcGLPRwnnzIRa8LAec5dv0KaBcow31dRup0vCxcLsTHTZtFvRprmmKbfKgPdW/jF5xXUDJhOXRv6Ezv0P9rS78yG0qCVjyNrLy0Ehx+olvdqToH33h7zEUpYfEf5kiKhV8PDblCpgth3tsj36n2oTfSoMvbHo6Ic8oMH/dMKXBuPNhR9VI8bz3kQ5QbM091uxwf0PHv0RxItdNLpFG7LJoXYrLwsQNCsMjr4DZb8ERJyYezD2TBe6LItQtEf+YrNLm0rI5ZwPrUgWQrFAQ5unavD/DfjQyFoL/6bIPJdzReZ9iJI3SdKg72XgTwS12F77WnThJ+SjsynKEW2xKUV2FlEJ13sWFVCHz6NdNyeUi4ePQ5g3R+zL6UUIdkNpM1HccCuWDqNtv2/h9O1ieV8Iu/5eh3aTZV7Bk+9aEIhDMLlcFJTwt3hY+GWfzPl6vdufQfrAfYtTJl9yB66DjpGTIyZhKTLSFXEHdqNMcIniM0sITNTizEJZ7g4w0aEk5CjMq0x5VAvTISWhXD2iTGQ7wqL9IQiNkHH90Dl7KjTYcdSGpSED3gH1UlxR3W3ThgvFfJzgOTIEK9aoIZTTTu/atKA/cQq8jkQRZ6C/RMVMmQK6gTGe40koftyuaP0ilA3ly9O3lEJfhkRpwHS6jNxSvmaAR2xonsR7F853HeWzmng3X4YCSzni60p+lEAc+9nQjkcQ1TqOG3tZ5fcetjgF01GUtxDZ+x6hP9Zg2646hGMm2k1FpauTMz0Mp3VF9J8LBTYdikezfkv8KotSDSvuOc+CMJ5BEGMXBC3ZB/PbFWFo669wdEZAwvIjGqIANdPhlzt6O5mM/wKG/a1hgQFiJAAAAABJRU5ErkJggg==;strokeWidth=3;" vertex="1" parent="1">
          <mxGeometry x="936.5" y="143.5" width="197" height="23" as="geometry" />
        </mxCell>
        <mxCell id="EDvHVRj9FT189KZN_WVa-20" value="" style="shape=image;verticalLabelPosition=bottom;labelBackgroundColor=default;verticalAlign=top;aspect=fixed;imageAspect=0;image=data:image/png,iVBORw0KGgoAAAANSUhEUgAAAQ0AAABBCAYAAADL//GrAAAACXBIWXMAAA7EAAAOxAGVKw4bAAAKhUlEQVR42u1dC7BVUxgWJfQkJVIURYk05Rl5TlypZlQjGtFQeczIO49EeRVCpTeRVyYzaeSdVIgut1RM8qymGkQaSkzFth7f3nftffc+e+1z7zn2Off7Zv6pu/e/9jnnX//+91rf+te/99iDIAjA2VvIZCEn0RYEQWQKFo2FXCnkGyGOkL60CUEQYcFiqZCfhHwnZCz+z6BBEERk0DhUSF3j7+8ZNAiCSBJEGDQIgmDQIAiCQYMgCAYNgiAYNAiCYNAgCIJg0CAIgkGDIAgGDYIgGDQIgmDQIAiCQYMgCIJBo8A7ah8he9EOBIMGYdNJrYVsF7JMSA3ag2DQIOI6aSQ66Wche9IexP/oi7LU32/wx2tpj/R21HJ00v0p/o4imDlNhRzC/io6/xuCil3ThXwBX5Tyh5DZQiYKGS2kRZHbYS8hXWCPYUJuENJNSK0Q3QsyXaizkDLI/IB8huMtDf0WxvEFAf1SHD/F0D9YyL9CduoKSqkz5Dwhm/EdHf07InV74/eVBn73Ahxfqp9knv5pOP5ZiG1dmzNI5b6Pewi5TE9HImWwkIOK9Pe3EzIOZQ7XCXkOo/87hcwUstIfJJyeQlbERR95Y3eC8zu4wQcIaaWLsfr0a2jjOh2EzDKitoxaR+JpbfAWziCcfymlBm0opI2QJfie98YMbWXpuJON4rRbhJTAVg0C+jV1UFCB+SPo/y2kH/Qb8YYmcuzbMljsEvK+kHPD6QGnCR5k0i+PxQhsgu2HvA/Hfs9S/1nof5NBZy50Ul4uXj315fc801J/E/QnWuovhf48OjORB3/uBB/dJmRg/AKEUw8jjnXw0z62BNGfaHCX5RdbC/3JEedrI2p9knIDixGCs1vIX3ppOFa/tTHC6m2hXxejN6l/Ix2ayLE/98Jq5ZZkD2vnKvjov3r0Ed+gq3EjdLHQb2Ho94vQOS/z+VTNeR090rLSH5TMuM75hq060qmJHPry2XhA/aVHG4naHggfXW3bYAQa/Okn8yL1Bxo3QgSZ54zHEKlWyg09Fr9jhKX+C9BfZak/GvpbmeBG5NCPW2N04egVkqyusTV65hDNZ7xrqT8T+l9l0JEvp7mjAIy9DL/ldEv9jdAfb6lfCv25dGwiRz68J1bpHE0HZJtE6XxpOTNQ3MOOhHzGuhg+QxIrn+ohT6qMW0Ozyt7fDcFn7NB2iG3fJiGfUQ/sNfkMIpd+fbnhl2dV4jpr9WpqvOIZCfmMI+L5jNQZ9WhMKxZg2jRHjyzUmnSSFaPBCfmM7oatjqdzEznw7b2N1bzllbzWQFvFexLyGVfG8xmpMuoAsMnXBkZXb+v8EfU7hlte68WEfMYjRj4HU+iJXPh3D+N+zNdo1uMzdmIzT5xsjeczUmPQ/kL+CSc5nXMMY59meT03om+3tNX2quMznOZCHgSxWlVyLG+6gg8azxt+3DofH7gPlmfwtHX2t5CNmfmM1BizLbiKNeEjKJXZmmSE1cY/LYu1UwvwJciYrfTvkVmkk4RMrSKZorNViQIPGr/CxzbnaRe5zID0boQTLPRbGvoX5/i71dRp3SpX/qgs2i/C97w+4nzPhCtGQ6D/jw4Ksfol5DMIS9/qgKnvsGQ3vvfgy2e2sbop3R1/Ne2IknzxGWqTkftZSxK27WIQls0jdNz8jDstr/lSMrLJy88oMj5DkcozsUO0sjIxYhQoE41eLlDJIi9JLXW6vt4jQbt2Rrtxlm3uC/TBMxh5PoW/43gR72n8huUHPpswa6wyznmJYZBFCdtOLF+zjtRx8zNOTchnPGap7+43ebXInopy9ezJKpoiPRyxNbuRkBkFKjWzsOkKw9dLErQztzTcbdmmIzavnY9A4bafha3yh9vyGbdZfuA66E/Kg3PKhJWbNXeS8YeEtV2D7zky4rybn7Hd7smgnq6ucXtZ6Jv7TYZy+E1Y+Nc0IdclbFff8MtRWXzuIKN9M5sGZxkNLDa25JPPqHQn7MgctT0+423L611t8BkWW9p9+006VOETfkoVEqFT7XgsIuW+7j4gp2fRdgbafp2Uz9hm+bS9wuAJmqbYiLWMG/aIGD7jduPYHdEEp1c7ZIXld3io6vkMVcvj/ipcbpXfsT1vuoIPGmPga99m0XY92k6zbbAYDd6y1H8mf3xGpQ3pLkM1iJj2fFUxAzYTr+PxGU9Yfv4n0J9DpyZy7OsHG2UtEqSQy9mF93Dtb9NgP1SRcuw3lcXVz0iVId2RQauQc7ca+0Hq41hbPfoIvVZbw7gXkc8gUujvQ8oTLp0DLH30Q0y3bfgMFTCGGzeCcGynTgb9AwJLrWPCn+CpMuJxCIo3GcfkZrVbMA1xs+jq4dz0cO5BEaYmw3xBdKEeNYJpjCUtV3+wtjdRBDdmfWxJGKmXJdNWjU5uNlVBYFXmvCDJY6nykwP1yl5GPkMxpbK46IZAqvMPKOv+eUC/O7LMNoWkR2/ByKNOiju5BKs9D+jVIbUGfZHBD6zGyswjFdPM1Xx/M+Z85u9eD1vNDuhfD5sEbbsW+h/zpivogNFVT+PlAoAqpSeJ8d+FLEwXv6e2RpQheMyH3/dFztMIjC5eKeey5L9RK4zVt7NrYe7WvuL6uSqqfKIuiEwUUJ/KJ+WPCMamXJLl9WSZu18C19qkfUOdb4yq9YHSCTK/Ry0KlKYveU+NtIfqnCL1YByFgNeE/kNU5+DRGDuVVycriuS7xmF4IrurghdWrK6m+ILl4UWavCr2Z7I/CKIwAsciI3Ugi70XKu9lFNqXReiMik5o9FYUh7AvCCL9AaMBpg2X4sb9MmH7fqjc/QbaPxyh1wgcRgh3IYs3uQQ5QRBpDxo9sCv0ZNy4O+x3iKqAMw47qX9H++5ZTI+2gf/Yl/1BEOkPGo+C5G5iLHFbrmSojOBmRoLTbn/tWKtrTEC7EvYFQRQOn4HtD6q0g+N/j3Bku646f0b9fxjafZrws/sige9S9gNBFBSf4f290i4dWtWGnVG+ROq8mZnPCL3GKZiSdGM/EEThBI2eepTg/f2qXYFolQl9DP6fBZ+halGs1MVvvGN1mf9AEOkPGmPLk688fkPe/E9naHOU/70+SfkMGWxUEe7APg1VvLo3+4Qg0h00FvszfGXxGhUAFkbo19ABxdw3lITPUEWlFyOFvJUhsrbn63pTI0EQaQ0YchPha4FjbhHn9RFtBut9Gb5jlnyGKj61wVihCcrO9L+vmCCqd9DoVbE8pZp6uJXVgntEmurpi++YyWfEJGY5fWKqnz3APiGIdAeNx/x8hjpW23jHTGADotqwFXinsI/PaECbEkRxB40Pwit+e6XrugWmLSG5FB6fUUp7EkS14zO8cwv9m8dkrZeoKnMenzGGNiWI4uczbo049zQCwWj8/VBEuccEfAZBEIUeNB6Pfu2CV8JyNgr1RLwpzNvgtqu8RixBEMUaNJZEv8HMeyPfCtS5iNIjn0EQ1SRgyBHCFxnOmysinTPovZN8vwlBEIUSKGoj6/Ia1AXdiQLZrSrW5VT1LRw9halwnSZ4Q91lxuslpuDa3DdCEEUUNK5Cde0ypHHPR/n9svKNZz79WXoDme9Yc+gvRXtTynSleBbRCeI/o5NL81+G3fwAAAAASUVORK5CYII=;strokeWidth=3;" vertex="1" parent="1">
          <mxGeometry x="1192" y="690" width="269" height="65" as="geometry" />
        </mxCell>
        <mxCell id="EDvHVRj9FT189KZN_WVa-21" value="" style="shape=image;verticalLabelPosition=bottom;labelBackgroundColor=default;verticalAlign=top;aspect=fixed;imageAspect=0;image=data:image/png,iVBORw0KGgoAAAANSUhEUgAAAKYAAABCCAYAAADdXa3jAAAACXBIWXMAAA7EAAAOxAGVKw4bAAAInElEQVR42u1de7BVUxi/t5crjHuVVC49FNVUKDePISRSHlO4qTSF/oiklFRI3tVNUUlSieQxQi81TIWmG2YohRKRoZpGuVIURo/lW2v9zr5r77P2Pnufu89V937fzG/uOWuvtc65a/3OXt/6HmtnZbGwRBaRQygkzCP8SPibsIvwLWEMoban/jTCeTxuLJkiZE3CI4Q9hB8Iowitdbm6nkvoR1hPKEDZIMJ+Qg0eP5ZMkLIz4SfCXsIAQpWAuqcTviT0JRwgrODxY8kEKQcTDhI2Ek4L2aYHQQAP8RiyxE3KIpDri2TdMbBdNcJOtG3P48gSJylvB7F+IzRIo/372Bjl8FiyxEXKiwn/gpiFafYxnfARjyVLXKSsis2LJOWqMvTztN7Fs7DEQ8z+xsalcxn6manvvCwsZSdlNozmAn+zy9YXC0s8xGxn3C2LeDxYjhRiTjCI2YXHg+VIIWYxSHmYcBKPB8uRQsytpfplqPonEJoRGvugEY8pSxzELAExPw1ZXxrhPyCsMTw9iTuudGEu4jFliYOYm0GsZWm0zTWIOZnHkiVOYi4Dsdam0fZCg5gdeCxZ4iTmcBDrdx2IEantfWj7D+FYHkuWOImZj8ALSbCOEdt+iHbFPI4smSBnUekGKCgg2NWmBeEQ2j3OY8iSCWJWx05bIEIoBTmVWWgD4WO0ueL//gdqsj+0wpJTJpzNhtnnM8I1yTqnaE4Yi+ttCOdCDShv/VJci1+FTET6E7+OVgH1nyMs96CoDL/iaZb+eNnI7JwXEF5BFuR+JJqtQ0bkAkJ39x1V+trL/0vmEc4nPAxS7g3euYmmWoGW5BG/oM3+9O6yarf4M/qQg9MN36Uek6dc57/xEeyqdBKNloasfxPhKcPGFZFMiuCPIW1UaFKysCQTZRoIMixk/cmEtoR9aHdRhM/KRsDpZWh7SP9yWViSybIJJAl5uoIMz1fh+l+j3S0RPutWwpWG8XYtjz+LjSh1sFPbo8mWsn4trSSr14ui5RnLdFExEa+XoO1EngOWIP1yccj6NxKG4vUzaDs7ZNsp+CFUhYtMtr2e54DFRpbpIMjQCORqg9eD0DZESqfoROhjmCxYv2RRGw55mtd7hDcJr+pjQlz6ZZuQfRWXLvnKDiq02SewjTTcv1hqVmL9kkXbqt7FRqWpUf6A1g2dyJOI+qV639y48x0T0E7aPc8y3rN+WclJeTwc9zsI9T3XqhC2gCAho5KV/XKI8T7HcPQ39WnT2m2Gilu/VK4z+k5iREzoz0egZJ6Yc4LNOeINXB8Ssr9ntf/UVbYdfVxlqS/JP0O7H52yhH55MB79Uh2NtzxG0CZQnMLcyRwpO4EAW/1dhso/KpLJ5tvn6uQlX9k0ZR93WOoPTja+O/rlGp6jyknM1cG5GtKN6Jz8FSJGT5zs1i+d8pftyfTqsM+xlvpLUX9CBRtvmYbwJGFcDOjt8xktY+q/vPFg4h9oZPixL/H5J3vh+oKQA19oX/LFaPQzz2KGyvWUVTX849dVMGL2RH5NHOqEz49WzqU0zR11eCfxD9yJyQ/w5ogXUGdwyIGfSjjHUt47eWlWoVNdLXXbGfplLq9qlW8ZTxwLsjygzneo0zqC/dKy5EsdMqESqPcn6k2StY/h8euX6tzHETHiXsJxzKHMEHMWCDDJ53p9XC8pJZvyY/f1qS/diPN9rtU11IZc/CjyfepmQL9Ud+d5MWJutCOgWaJM1jgQ4P4AE4tHv1RLcs+Ayb/H51q2Ef42SKsR1nrVEIhcAfVLlrDE7AIC2HbFeUilEO7TYcVr/nqfeJtwacDnfYX+Vvrv8Fm/ZNG73/U6qShpSV5obI5GoLwB4XVLPznQuw5j9+1nD12I871bBXyfRLDINk54q1Bcq6FP6ZABOuqGmMppokxGG+B5kQ8bGqnJpxLgpUfmLcIn6Ezqfmd47qqb8bAhYaDE5y48XqdKJJXLsLjvCbs9/fwFd+htPLFHNSnb40kWQ2Aum4W5HZMi9kLpdR2hU57t03EfbTy3Lvl5epft3PXy7MEafglscner2lQLV85Sxk3gGg9knMSZafYnYwY+t/RZF9fzsVJ6Unsdz94knhOWxJLaBEb4bYDwt7QE9tUCD6gSyCvvhQRCI4ZAPAErRj3L9/gVe4m6PC8spj5fjBxxEf3xJ0rNm4WEwYDIM0VKoe+QSddW+Qf2sFRWYrZFFutEkGNOGkt4B+xPYAK01itACveplmubogUHsVQGYkrP1Q2EgdFPalPOkvEI2DkczTPo9JGPZXyLO9yRpbITcxG8eAlb9vYIbadiU1oYLfLM1cdsELMTzwWLqV+uxOtmxtnpIQ7FUkTuYRBUGFFBUSwDB/TZASwsbv0SZhpp1nPSXpqlaCfNd88b71Pol9Y+LsBBXV15Hli85BjmPgfKeZRKigdPqaMHG+N1GvqltJGrJ1oYYZHKbMQ6Josiw2J3ZJSKXZAEuyugTYE7JtfRL0tCZjY0h3mooad8qI7qZ2H90tEvXRuRgDBD5Rl8ye2BU2egCh24k/Izm8Be6vEcquzcFRysw5KlD0TzugHFKJBsfsDS39ZTthFt7k7xeQ0NVcGGHTwnLFnwUXvOGXXyutb5EOtRT1kdQ79sleLzxln86CZm8JywZOG0ldqWnbIk2R+W+jP1kusq6x5Nv2RhiaxfOnfAxNJayyjvY88iiKJfsrCkJmZBQH5XIp2lAO9rBZw1kNAvB/KYssSlX/oYtlUmg9DLtHo/JfkcqyT9siWPKUscxFziXqpd1+aDbCNx7n0/n3oJ/XIXp76wxEHK6trA7Xs9ccbAXPcZpaxfsmSWmN30A6V8rw8w8qwCfObiG9YvWeIgZE3EXe5Ewl8jn3pXg3Cjfa5n6x26s3u/mU1FLOmScmapfVJloO7G6x2W5LAGeDakJ4lQXA5S7zT6SGCfPi0wPvkPdmIet08ME28AAAAASUVORK5CYII=;strokeWidth=3;" vertex="1" parent="1">
          <mxGeometry x="952" y="652" width="166" height="66" as="geometry" />
        </mxCell>
        <mxCell id="EDvHVRj9FT189KZN_WVa-22" value="" style="shape=image;verticalLabelPosition=bottom;labelBackgroundColor=default;verticalAlign=top;aspect=fixed;imageAspect=0;image=data:image/png,iVBORw0KGgoAAAANSUhEUgAAAP4AAAAhCAYAAAD5/harAAAACXBIWXMAAA7EAAAOxAGVKw4bAAAKrUlEQVR42u1dC7RVRRnmcm9oQQ8QMSyIlwgFISIIN0jJty3xiWRXSOWCyzRNSJGIxyVTF5jGwnegoqiAYfm4wA1LoawIsNXDwszwImqIkpmPDGn6559vnzNnn/2Y2fd4z97nzqz1rcU9+589s/+Zf+Z/zdCuXasUsYLwCmFAO1dccaUtFNGLIIAvO3644kr2hLg9YTihjnAeoZZQ7aMZ4vv7Egj9TsKHMva9HQgftqCvIhxB+Cr4M5pQE80fV1Iwzl3UpiQmE8YTPuV73pHQry0yhgRWXEr4G+FHhDmE2VDhnyEcC7qTCI/56q6F4F+Vge+sUv0X2wivo993GfLnYsJzhNWEueDPA4Q/E04A3XGEdU7QUjPehxAexBgtIswgLCQ8TVhG+ITa2HgOH1OmPg4i/BTzcpUPjxLWE3r6NOwmQmMA/SOg/6xJw90IvyQ8XLwS8vMehC3QAvYUCjivlO8S3iEckJHJ0B879fMQ/Atj6LsSNmBgPh3wnHgmfks4F4vJd5zApWKcJxB2Ey5QmmzR83oI3HWE9wgfKaPWOVhtHmIj5uT7hG9C+x6oNqwcfQ0Wi+O0TVdiJmGEEnq/ll7c6Eex+t0bzJwCYXkfDdRqv4/Db7dncGK8iL4fGkEjF7bN2Nmj+NOH8F+874tO6Mo+tqcT3iJ8IYbuZozZUynptyfIGw3pHwD9H2wbuoXQbLbasQrxtlqhcr/djoY/n7GJ0Rf9fjmGbhEWiE4G71wD7Wc/J3hlHdtPEv5lZnrKecvz4NoU9LsG/Zb9mWdYZyfob7RpqCd28W8b0kvb6HGfvfyiUpcyNzkmg2H3RdBIFX6v8ncYvfMawpNO8Mo+tjdiAf64AW17jPGJKej3CE1tP9qA/lCN/jSbhi5HpeMN6ecph1bu76HZDeGxaSP7PiWC5hugOdnwnbMIDU7wyj62LxH+aEH/T2Xylr3fV2K+/ccs0iR9U0y/z9K/Jm61Wy3E4kL7VTqxxF+jbd/UTo5mfHu/mO+VNGdZ7DRfcoJX1nHtiDF73pB+f8KmlPR9Dfr+hKV9/zvbhhag4qOG9EcXxqxZMKZmZELofol++byDWNVdKIeLURtHFbaTaQHqoLIw2aNs4bMQH4PHeYA5L9hk7E0YBvMKHuwkUSK2k9+zUJc7qHHLpH3/UgL7niuO12yE2wgHV9jqLyftPYh5LiWsRKijHt+8PKb+6Rp/fhgc6qy4HbM7vnUbHJsN4Nu9SqBD642ER1rGzKcjD+Rxwp3hfGOh+y7i0fMQdrsC7U0jvJFMmxS/yTtuxZnZSCoTR1ra9wMT2vdcuRqhPO8F/0O8fj5hlEEsMM2MnIxwTr32WxdMxofwvZMNHD+bffzZislam23+hDqXXkPSSMeABWGtoimqNx271ZiAZxcj9yNgV2UBX1wYo87x/W7wPAGPOR6+Txu3N5Dccr76jlTyfoalff/1hPZ97gXdIAwiAK9jYDplbALXQ0gvD3g2Sfu+vgbv6gqNIYg/exAHbqFjSJyNJJJSoS5BH3og2WV78HhzsshmFdIt+H0ieDEp4t0yZPxm4QEuzgsRKv8hsM5BiDglXFzFOVjE/GPmbW6npGzOevb9u+hfHHYltO+LGj4CzrqNWiKKh58X56OnVuiHwsbbGjxpZB49f9MOy/ceDq/9k5oN6WFDy9RJjq6sKiESpE5zarYIXiz5+So836791hm76Y5oAc35VDSnlVRP+bcxEfU2tUyr4uQ0mb23RHPmCm2nPC0lc7YGC6PAwt3HAK8ltO9jHTQTkMYr4sNeJWVCe6g9S8x25KL6W9Dfr4U8n4Ln97RwQp2tpVdKXJRhFf9gTTUOyWIUY5Xg6uYRq/gGvpICR9Th+HuYdrDrmHAfS0m/83PwPfwbbf/D7oBWwbtqYY5MLEG/RmrzqNaAXo/fn/pBrUSr0UArHTxhFU3bSa1tOwGNpUsIzXLQXFCCvlbDThWFiU2ZE/xJmppZZVHvZ6j3fQParaCdFaDeQpNgQZqqHFcf6PcOxrcKZcIk2px2a6bDoBb25yq8622zSEjy+H1vC1pvZf5TBgR/Geo1RdB4KY69S8QfL+VzW4YFf65Z+nJRve2oN9eA9gnQ3unTnJb5HHEibxaIz1j0pZPyxxjT34d2zk+B4K/DuwwzYMX9oH/adhdvslRrEwhhi1T9KxFS6mNZ11Mnp4c8PwTPX4jZxddbtLl/ug55JOJ5Q0LB9/g934B2Q3iKtDzxyFqHNO/+ogn/c2Zpt/yOi1R42nqxG5eQZ6OgoZxbQvt+lmEdb/O6waahESrjx5i+Jxr5QconbwesvhF2Us6+vyvGifegRbvd8c6bWtD3S3DYqVSYZtn+lISq/ibzuZELG1+nLcL9Q2iHaL4aU2FYqbRT474vwnzpUeZ5O0pb6EYb0PdPaN/zbmrh2OLYpwiO36ZK8LtoDOkaY9+fp/12re+s8zSlShm3O9HcKRNpY5cynFdv2X5fjXcxFzhIZ5jnac9lNq6OqVOlXXoCm5pvMLomok431Flj0P8qOOosTohK07W1tNjIfswEX94xy5BkH0gi+77RPPbHaoi8fefHGVBXq8G8fcG7FmsEuwpjx1znJz66h80PeHD935unPKeaf2vzlzlE0i1WN8Dwv3shtPlqtFNKHIZ3P6MtGnXqnEdkW4+YpUtzNqYwV7tlDJ93+9Ep4HuTnXM455uwtu+9fGCDa4akCscx2oMyMnkb8W2dA54twKLwlpYLfizhMp9/YQ/ecYJBewthb3WvAMEfAFvzlfCdhMN+PjNRHumOC2eyprXXd8CrLv7kI6v7Bqo+2/cCtyDF5JuwP+HlaG2jVc1TL7Q429K+tzp/PxyVFuBU3dgQOukhvYPw9+jQCguKzIW+GtdO1WAXrMNvrXz4geOhewtDddyf70FFasoLPuOhQqHNHTOWAv1s/p7BonY6IhvtBRUbrpTCC+GbcMT5wqF8uUVTccSD+XgDtK0TA57Nhu9ggu+ZJ/jP5jWIgudngL+dDe37ZozJSnWPXuj8aIZ9X+YTpSxjMzQT61sqfybUlOmqqflwqIZ9Z/ELrsh7VTnJ/9cY5AbY8hMxiDsh+BE2hLRH+FjvOXBwLcUBjduQlTUGWV21rcxQb8LMRybiKs2uHIAQ1EI4wXy5+pxBt0KjfYrwCx9/rsflI0vswkeZEf4+OO65E+nIszC2K4IFNFdPXsL6K5gMc7DYbkEeSMD/tcDzZh1s+eWYN5fmx4DHzcDxxkKxA4dcqlC/GX2W//4K7lV4DPNifJn5WweTczvufNTxavEVWmyW7Ebf/fS7EPmIyxqVXkD/FVu8y12mkjB4Uk9Vq3vsB1ztu3vvDKxEczSnmSjPkUdelI6E59i3svNtucNDLhUdF3A4ZQj4cz14dGHlnWIM3ZGGIgpk4UQSB8JTfVj0GQa+3VY7E8Cbx1ikjlucfZDz2e/d5t/OwgK0GKG74yvvUFXrT4oqpREU/ObFRQdqE2eQ45UrrlT2YtCIkEqV44UrrrQNoa+GPb/S8cIVV9qO4A8LPtKZhptLXXHFlVIJ+mCc0R+Jv2cWn63mO9RucrxyxZXKEfwGHH0di/hiIzK4RuF5Z8RTD3S8csWVyhH8XojP3oITSt2QyLMelysubRshL1dcSW/5P/9OVvbpzn2bAAAAAElFTkSuQmCC;rotation=310;strokeWidth=3;" vertex="1" parent="1">
          <mxGeometry x="510" y="540" width="254" height="33" as="geometry" />
        </mxCell>
        <mxCell id="EDvHVRj9FT189KZN_WVa-23" value="" style="shape=image;verticalLabelPosition=bottom;labelBackgroundColor=default;verticalAlign=top;aspect=fixed;imageAspect=0;image=data:image/png,iVBORw0KGgoAAAANSUhEUgAAAP0AAAAlCAYAAACJWO++AAAACXBIWXMAAA7EAAAOxAGVKw4bAAALBklEQVR42u1dfZAUxRXnjlMQTg5Q0XiieAgoiocGURSMlqKekRCJED/5EPEDckm0KJMKUkJUoqKAioIaSsOXch4a1EQQSrESvxJAEqVULNAcikAQUThAlExev/7NXO/szGz37nGzs3ZXvT+25/V0z+t+r99X9zZr1iTFGU+wneDiZrbYYkuhF6c5wRcEDsFvLT1ssSV5THwCwRCCUQQXErT2Pe8hGd373Q8Mv5fgqIQJqzaGbboRDCa4nqCKoNT3/ESCA+wayqt5PoLgJ1jPlxEc7nt+GEH595U4lxKsJlhGMJHgNwSPEnxIMBo4XQne97W7G0w/NwHfeDvBGoLNBP8jqNNsdwnBKoJXCH4P2swEbX4FnGMJPiIotoyWF3Pdk+CvWNP3Ys4mE/ybYDrBQYCVBMfHNMaBBEsxzhoFnkH9Ih/+xSH4Naj/C0GRTscHEvwRxKgMeE47vVNLMBYMs8D3/D0wfe8ELAQh1Xvhe5z0b0nDLyGYge8+NeC5WDRPSbOGF9ciy2x5Mc83EmwiGBTwrBgCYD7BHOAVxTTOUmjOgpk3YE3+FxrJD9M1EObFHtAy1wP/S4KfA19H0xYf68zGLhah6jqt5K7InYxW6o9G3esJWxRPYNw3ZcATwvBdgrYROC0J1uF9t1iGi31uR4ERTsqAtxBzVpMHYxZ8uAXjuU+zjSskppt2dg1s8RM0cCehE4WYzhjUDUnYwnClZIRax36N7whO1jQbHCltbYlxXrsQ7CEYqYF7IeZsTB6MuzvG4uhFwJwKBX+QSUdCzfmY4HlN/CFQPRRViG2LT5PlvPK0k83hah1LXmGvLzGwzb5KdXDaEsPcCq11q956FA49/yYW27hHYyxikynTwB8JfOGXOtSko9PRcIIm/gCCZ332bH3ywnTOcHz3UxmcQALnD5rv7C+dKLbEOK8iGrOT4FVN/Dbpm1hsY6/BentbE38O8P9l2tHVhjbEiAZPtScEdhEcklB7/oYInMHAeUjznVcQ3GoZL9Z57Yg5+6cmfkXqJharPb8JY79Hs81/gP+AaWcD0HCDpkpxvPR+e7+v1RcYsRLVH0v/GN/dLaLNBcD5nKC9pi35gwJhnlZS5eUoR5lBO1IzndNkBMg5WLNNCfrqQ9C5wTwSsXXjcbfBnO2TY9fCr8wDep9oaM93UfAvNe2sHE480fjvMuSWD6pOoxCyvZSa/F0zoT5dRdAJ37sxQ/sOcAgJ3LewKAuENqHfLJJYHiNYK4W58zuCJxHe7BPRri9yO0Toshqh3Zfwu3NIG2EaTpH+JA6fXSG1SBFCdcZJ73tW3/A+5qxOOrhEODrv6T7G0J4flaU9771gmiI1BHxG8DgIVpbQxdsbky4Si1oo9bOwqB0Zo834nnt8tNmIEN5l0SG8RNKsJ1TMlwM0o7Zg/P4B7cbCgdk34NkwPKsKeLZIJsyk1RfD/Nqb5XcMAjO4c/Y1QnPX5W+2KCfimNjz84C/Ohfnh5Dq3/gWuIBvkeHTNUGLtxIx2hfSM+N4J/sW33a9xruKpSPP2/H9tFmiF+qM7OMiZDQ2FozNYgwdIOwF07cLeP4jghXptrLnExoR8e4p8PtU+sxE0e6YkDZHEuzOgaZD4aBzAmCVpHnerNciRJHE2HYg3yMT7MnSng8ktAgDPB1AsM/k87xn+NZQTXdFLCjXYWIgyFhYjEAG12YfbTbJEGDWYx4IjaSxYGIWY5iJbwlp62lHW3328DZoPxFhSi88+oZS91PUnRPR7u0c10Ipdv0ZSI32C+zz82TNqvb8QCl0I6FXDvZ8xh3uLKiyrqo0q4mIMACq5FVZtL0zOhTHufGOzCvIiTZ9wGAubeYlWK0vVXaOPhGq//PScevVVaNNrUYfrqf5DOV9bp7EgOCzCiJxplG/sxuOf9ej7xzOSHDKa60UXjmP6xfKYbXWGvgjc7TntQZ1Czr5ookW4G7FA2uwg/LOsx1tB4fgDG/cg0FeQsWO5B6y4Zxvd+coNWj3Ito8rIH7D+DertQ969OWBBPdLL3/+93f45p4J2fR/kg43ByYxO0ayZ7XTGPn5KNs7Hk+KaeZOSYcYbyoHZljvl8n5CA4flyCGoTAnMvRble4xGRPtCOdOqHvOU6GkbT6LIGK6yTXsecJrm8M263RT15iz77A/ZNSJ8KCjyjRIxXeDPf6B77/ULNdj52VTna2PR/Y2q0I+4NzoL1qz9+l2cbVmqaadrbELJTBYZAdTbQIz5QJMabqnWd3LovA+QQ4x0XgvGC4470DAVWccKbfaxaS5BRlzcQuZ3m4GSQSu/hI91TpKPR24XX6gpRDfOcZjH0G+uiVJc3OwxrtlyPteyiC7gIN/M4KvolpwcdoPzAc3BZ5jjyvF+/iaInpxec3RLyjuXQEGvVbl+qkMh73lQHnonMBQ48u3xPgLiSTRJylaPOYBu5K4E7C7+4SQm3vN8xuYWJNosJQpd4ptY1Y12y14ljU0Bg8e36fYRYsJ1J8YoB/Kjq6Ns+Z/m8Y57AM9vxspW5oqrRnz+jnBn12Tz9qbDzufriUo7FCdtcZ9t9GCdeeq+FzgYnHCTVO5gNJrMJuS30/C7p7M6jros1zmptYvRTq2pve1tR1ENuarW0wZ4zs+XdMOxoHydJBE38h7LeSPGf6p0GQH0d8hy8+z20Uac+JJvv0r07iJImPkpH1pWUaZThnwPkc3RXb9iskv0TsUnyxAxxPrgnEmZHro80J1twWam5iBuEr55ewyStipnmREhrXPdSVtT2/VD+xX1wwwc6KHglYuCPCE0U4XrsLz89CXVm6F5/teUdmKWr1Vx98m07imL4Dzl/sjEibPSI9FOqpm7dlUKX3pN6qxEyf4Rw4+5GqNTcxeL8zOadZANVLrS92mlcqZlWVBn5FLvb8TqSjvoa4ZcAuxR77O2DL9414n4ixPhh8gQaraFVNSMQWuOHmJd95/2EYoxsPPRv146U9m2LPb8eRxWVQuVuE0HA8VMRzmxVM4UMvdWA2H+Pz6bXFMs8hrd1YmAdDffUluJfu63Tty2P6NcGXmIjTj3x1m4bNzZvYaqST14Z78Tm2vi3+CzN4s+mqHKV1MLby9DsAWBs4HGbkXAX/GuDraJjsGV+J651awQO5Dkk445D4Pw1e7vnRucpsD9+sHGc8x/d8rgxHNClByxGOeRFCa0GDL0IQlMe0nOD+dK8z7wJYaN5hkPUQkLeBNlNwQu+Z8Iy/RDN+O6jwdWCgyVgHT0abPEy7RdhtpyEUtxrrKiDXgsOrNdIs4GzAebh56E4kAc3Ui3+zAN6IMGsRIhHu/EzE7zsQYXmrITkoNvpORNRjRQCsTU+AY55cG4L/oWa+CWdC+WLffJhiMJJwJmBnzBAf5zbo0As7XOmTUJviuySS1dUQxw5LzoCUYv6OjgFS+WcQbhPgDPweXJXMWk85jnC2MGjXEm06Rt9cw4JV2aW8yx47md08xOvwTF/dATgWXY05uyk/bsZJ/qKoashdZkn6Xer5Z74335HMYostthQS8xfBPFjsq3cTPk6xNLLFlsJi+jPA3MN99QvgNLF/+mCLLQXG9O6NH0cH2PN/tvSxxZbCY/pJsOfVEFlvCIJfW/rYYkvhMX1/nOvF7TF8YYJ7R1lPSx9bbClMxh+GhJhZOCm1HIkr1p63xZYCY/bmCM2pqn0ZMv4esfSxxZbCY/rJUONPV+rux6UAR1n62GJL4TH9PFxVjMwqjs1vsbF5W2wpXKY/FjnZjyIuPzV5f29liy2FWf4PF2dt62hunecAAAAASUVORK5CYII=;rotation=50;strokeWidth=3;" vertex="1" parent="1">
          <mxGeometry x="610" y="390" width="253" height="37" as="geometry" />
        </mxCell>
        <mxCell id="EDvHVRj9FT189KZN_WVa-24" value="" style="shape=image;verticalLabelPosition=bottom;labelBackgroundColor=default;verticalAlign=top;aspect=fixed;imageAspect=0;image=data:image/png,iVBORw0KGgoAAAANSUhEUgAAAPsAAABCCAYAAACRt6AbAAAACXBIWXMAAA7EAAAOxAGVKw4bAAANXklEQVR42u1dDbQVVRX2/fCPyEtBkMQnmhCl9owMeIXiDyL2YwErhPhZhcFDEKLILClAUCwpMOXPwITgEUJaqIAIaEJJobZk5UpJI8qQDBQo6fmy6Zx9vpl75s6cuTP3zuPOXPZea681d87Z5845c/acvffZe59TTmFgYEgZWGcIvEngZoF/F3hc4EGBzwqcILCZVre1wG0Cy3ncGBjSw+RdBK4U+K7AnQLHCjwvw9zWOQJnCdwhsIPAMoFrFbMzMDCkgckl004VeEzgXoFX5qh/jcDtAm8XaAn8Lo8hA0PyGb0FVnPJtA8JbBWS7j7QSLycx5GBIdmM3hL6tmTYBwVWRKD9MOj+E/4DwcDAUCxmXwGGlYa35nnQ/0vg0zyODAzJZvSvg9HfEVidZxsvKb2dgYEhqYz+foH/BrPPKaCd3bmNeQwMDMVk9p9qq3qHAtp5Qe2zMzAwJJHRuwr8H5h9RYFtlfF4MjAkX1eX+CkeDwaG0mX2XWD09wSexuPBwFCajN5cYAOY/UUeDwaG4jJkW4HdYsBqd8AKtX2uJsI/GPJ5Ogv8QMD/dOJ3xsCQH7P/TmPIQvHurLZ7amXfC/k8P1SOM9bz8J23NM85eW8GvzMGhvyYvU0TruydNWadnsezfUajH8LvioEhuR+SSri4SmZdkAf9LaBt4P11BobkM/wGMOzjBdDu5HFkYEg+s39e07kjbL3JyDZHZ78jLZ2VgfpPCtynfIQZGE4qZi9DFhofA14g3Vc0fX1AWjr7Me2h+/DLZzgJGV6mn/qbwP8KHBOi/rXwg9+HlFVt09LRmWD0P6TLt5cyilTyRGWIaT7JyLffgBfqBfbKKq8Q2BdlvxDYUeAklX8u+p/JDJa/FLhFQ5nNcnieDy+T4f08q70tSkdx1XsOHRyX8JdxMfJ8/VHgW3jmYQH1p/n0vT7/rJ9ya8Z6Iqu9lcwkJSfSDxH4GEJeDyFsdQ9wucDeWn0xl6yP5vtHgtC6TuDDAt/AhH40z7bkgzWijZ8hKd4lbpGD9hllxM9htZ+Z6BfRSn1trdGa2tEtoP7ZAvtBt3ojHI2xrc8KfBX0B9QHmL7y3ZhBSpbxJSOfif35puQNa6HA72fE68j0kiG+DXqph7zPUG8s6sxN0Uuwc339JWT9HvjwvQm6qyL+36kCF2ki3nRmBIY4J/SvBNZqAfURdGnrdIHztA3/3wbUfRirf9cUjc1E9OsnIevLlX2kGgeiuzHi/4kPoXUhDDGWWtEZGOKZzDLZ/HqIELboGcG5XnoCkfHg8WCfX4r4OapE/FSNz0Po15iQ9VchQUF99D1R2qmYBOurBT2uOc9Rhrgm81CBk3F9LNpqYvUXOApugEdAe52h7oD0rVRkiziI564OSYNsnzK3GNGtCUknx3AprLBzQbuZ5ydDnBP6PmV5pusXMclGhKCTBqxlYIiPa/p6+wAJYHfKxuZC9Ou1kPW7C/xxln1iV0jaacqgSdfPgvZbPD8Z4pzQz2S2h6xHwhuF6MypHrgOo69vzH9br2hjMwn9Wh6y/jilr9P1FaB9MwRddeYIH4qnZn2dIfbJ3FHp687veeEmt3WRWolcjBwhRjdx43AZ7BbrkLj/LhWeSL8tpaqEaqc+Y3wkBrZtIO1y0N2f2aIsRX2dpEAxN6zVOJQwYDytQZAC2YEp5pfwBYE3a79ty/NTATTl0C2babrm0WB9PbH9lwx9L/RybRW1rkfSgH+gXyF3D+SuhnNdoaUgujiAZrQ78WAp6ut0llkfTVpqVCqP79w6gP53Zv6M9yUsVKu066uaY09ZfhxcjNE7t76eyL6XY6Vp8PdKcsIJXw3ZXo+Mvu7cewVtXG+gOV19VFz3YtTXSbq4GWpWHDhJSYORnkF6iE3RftuGy5EGiTHCmDNEeRE73O6cZGCyM1+28Knf1esQY30zt76eyL5Pw3PfaSi3nYSWhWxvvHcCW5vQxlQDzXw387j09RiChMhusMnHjTdf3JgxIoZ+hk3ugwedj1mtYSGJMOYMUfT1dVn3WoDRLZXkzkOz2Lt6O/r6XSf4+WXk0OxwOwce2m6IJ25UMQK+ddaZVyDf+mu84j5JTrKNH/nU7+/duy81fZ0SLC7Vfl+A/u33jxmg2IoIY+7QdcZc+CLztf8ADXPr6879/f4xs7Qf/7mse7q+PugEP//TmgHs2oi0i0H3pKG8THN3DRlzr+vrHunhUR+D1TKvpyIZBi21GpbEHGum3H+d3zPMcdykVh1C+dkR/2dbYQcvWANhK0kzBp0ZR/7XF/ncfwqDNl67107gEp+6tr7emNviHPtE2qO94BERJ+DboKsz1LF1x70h2/ygsqh77ttZSV7Kuj9T0Xjq2wcI3FqiC8zL6J+fjeQj0cbcRft7bS6MzoP+RkQ4phm3BHVwp0GUWu4VyylIxmeFc/T1XUWYOL0RAjrfm8UzkO6T2sSoNtSx99fvD9lmnb8I6Uzg45lVnBx1vuFT91QtarAEk3rk+oBKI16UMXfRXoq5sCDaXDg5RPjOXn3dKbsNg75WY6q6AONLEfT1gvo+JhM6aqyzHnVCOgFRSG9XAwPbH5azIKouNxg/7Z2QY/FNWDK43hIzdsnzWewzzuYbyh+JLqUxhBn4G9Tq5Vs2HIO+G8ErD6g9Y0+9IurrBfV9SgR9vYt2b2pA/YDsIU5btfBjqDXUawJ9nf5zjfpwx4L1SjLJ61lWon9DDfr6YfeYM8Q1CZaYX5rj535Y6Y5+en2x9fWC+j4Sz73KUN7LK25aNcra61u/p3d/3VWu7ZsHSUAlr69vRf96+ZRdgrJXmDfjHfTm5q0PKu+giZ4zA9q5tXj6ekH9r8b24gaDtGJPSk3NISuyIR0QlU0I+L/VaO/P5tTBZABtLO0knJTLwFIfR0/ZApQtZf6Mb8A7QRyTA/uJgHpH1cqmO0O4yttqEXIhDqijyTwEiK0Yq0rpZ5S+6gT7QZM4eijL2aOl6os0tJE3IPK90XFATxhEzxtgfFtl7gPt/8pxGhzwPJO1D2z7Ep17Y/2t5XI71/nQDWce9Yzb+VCt5Vz7UBiCqwW+7nPw3F/V+VG+IuWVPpN7J3KjHc9q5221vSRTOPmKxauwl/klpMO9DEkh+sN55QR7TMkVljzCHkMOvgl4jhqUz4L0Mwgfhv5Z9M/AKUcfgyPuoCKn7ijD/YlIZnkwq50GvJfZJTZpKxDwcwA+Hp9GePUsbX/9LGZuZ7zaqOxI1j1g9ing4V9nok39CSuxklZlktmRt1yVYfutMoBJqiLc7wgDkdYeibNvwS+8Cgkoi3CcDRnW+sA6X+sdB9o2G6W+rL6Sij2eZZqk0togAfiNcUvQtAh3v2Qm8XlYpUYgnXJfMPoLCX7mlvjA787CPO0r1O9tPu1N1uosUtvELjrpNfpPJDTtmLRBmumO+JLMQCJbvXZvsEpDzVDCq1RlwAJiJzqdnAIVuAbSiO1l+lyebS3WMjutxsJyTuYDT4vkfpVl2KgWzkraAGWdXOEktRzHDHBS6ZwHEC6cHVdRhV2f/Wb7UOL6MweqB3asItPLsPKvaWqbz0Ln8Ml+n7KhKNuQ9IGyLfjdmQlOGmb/TiZjT7aaQ3kR3lU2nNT0ZyvCmfMwqJK6Ox8ZjSTtnwz15I7Z7d4DVqisLlr2pOIN1CZvmiY6meZMZoqSZfaJ2AE63+d+g1rpUtOX1jg1SU9MUhOBfh707tUFuAavDc6RULzBuSkTxklGjmNeDzEagB7MFCXL7KeBQQZCbK+Blfl5lTo7VX25WvlV0PXe3FuqLlqcFkTX9s5YxJBccj56D2e/JemcRPK/t7TUynWwJD6g1emrmJ2hxBm+FSLL7lGJNa3L8z8Dr6j9mJ1ROegDZrlzMRrpWiAmolxLEBMh3Rm10R5btdsTeHQadUyK7T+A3/edOEppD3T3+YjDrWBmYEiRvt4S14vAsAtD0N2WcYhx9PUIobykw29GwFWSDZmUFUY7YYb0nZ7m8+AYGBKrr2sqqJOYZGMOuu7ufIJR9XXil3WQKjTRPekHozIwpJfZB2Ry+9PvwWDal3NIt8sy0oBLXw9zEEs5ok6zYi/I/sXHdzMwNBGzz3FvEZKh0YLbtCmobJxK+ula5a1wqbfIw/NeFU/i+QAMU1uaDAwMTcHs27JW6HYa4/plcerkzbVHGYhDhPI6jG4F4BB+JwwMTa6vO/ftxCT9fMoWeTMXOyf75gjlJffZ3TnwAn4vDAzxM/s1bn3dub/LELY7SAX7eOq/zqm3GBiSzex3+Lv0Oiv1DO1eG7Wqe+rqLraceouBIaHMvt2trzv37aOsVmj35qrtZk/d8Zx6i4Eh2Yze1nzIpvVlMDASjkr3X+urhrq2FLCEx5SBIZnMPtC8zUWZlizo4pXw+TekAXf0dU69xcCQUGafaw7BpYNOLWRbmu6fOZf1dQaGNDC6PCrsNf+Ua1ReoeUivDugnbrc3nYMDAzFYPJynN+3PnPuoSlgi86v2+fNyuSUn6GOM6d2tqYnIw8DQ+kz+qXIntyAlFk2vqPSYXvq1yu93nN/BzIHH87CI8jG3C/uJ/8/o6iKFcR9F9sAAAAASUVORK5CYII=;strokeWidth=3;" vertex="1" parent="1">
          <mxGeometry x="590" y="160" width="251" height="66" as="geometry" />
        </mxCell>
        <mxCell id="EDvHVRj9FT189KZN_WVa-25" value="" style="shape=image;verticalLabelPosition=bottom;labelBackgroundColor=default;verticalAlign=top;aspect=fixed;imageAspect=0;image=data:image/png,iVBORw0KGgoAAAANSUhEUgAAAPsAAABCCAYAAACRt6AbAAAACXBIWXMAAA7EAAAOxAGVKw4bAAANNUlEQVR42u1dC5gXVRUX9tHqImQKLqVoYvJSsCgEMjXtKUhBaiskQvlIAck0Ldge0Fea4gNUHqa7QMGysmBWpEWZIdKDNNGeWogSuyCERWJ9Ekz3nvub+d+ZuTP/mdnZPzN/zvm+8+3snXvnP/fOPffe3znnnnvYYUxMTDkjq0bwRYKXCX5O8HbBLwl+VPCnBFdoeasEr3anMTExZV3Iuwu+TfA/BT8veIbgYYKPwQAwWPCdgh8TfBTKLBD8K247Jqb8CHq94HbBr2D27hKSd4zgtYKvFWwJ/ha3HxNT9oVcCLV1M4R2neCjI5ZbgDKSz+d2ZGLKtqB3FbwcAivx+BExyg5Euf+p5T8TE1OWhf0WCOzzyQSWsP1GbkcmpmwL+ngI+n7BQxM+Y5PgOdyWTEzZFfQ3QxEnhf3+DjxnveALuD2ZmLIr7HM0vN23A895Wg0cTExMWRT0HoL/A2H/UQefVcPtycSUXWG/TDOZXcbtwcRUvsK+RhP2PtweTEzlK+y7IOjbuC2YmA6uMFYpv/NUuNKA1+1Z/eEYGP8ktQrwPb9O+c0zMTElEfZWTSA7yos9z+6t3bsv4vvMFfxbwb/XFHu2Jv8Pgm/nb8bElEzYu2N32dAOsnxGN8+zD9eENYEzjPVhrfwk/lZMTNkeTHZAWJsSlJ2qed2xfZ2JKePCvgwC+0SCsitQ9mluRyam7Av7BzXM3StGuUpNk39nXiortZ2/VLt1rCP54zMdggK/FkJ7b4wy9Rpe/1heKjpae+kT+cMzHYLCLmZ0awuw95UR8p+JWHSbUeYteanoQgj6Yzn6OF0VMzGl1qd6IzKNlIUW/zZXimDzTmWio5XA8YI/mxCv04/JH3nQw2MSvnw/wc2G573fk29L9pciFAXkJxhN2zGaTgjJf72h3veHxxEL/f2vGZ53FwtI2Qm8FOhxakOM9Tq2vUqI+xTs6lKezvNMOiOS/FClKiiFjkYO2ySwPMGzKtAhrYJZgWyCI9yhdqwhuP9itkPfkj10pGfTwikh+U+A4mWq1o4JfZ8Jm21G+ZcR5OAc5UXFVMaCL+XxrYLfET0OXbIfWqw8caiDJQhLS1EuZ6H8vwW/KSDfTOT5XE4+QL94fsy0InhA8Ksod3bM35MukPcIfhblr2MhYEq7Uz+pmQR2xCwrfXa/qcLZFtuja20QvEf5++aiXa5Enb4bMb/EVJdiGZbAy4kG3MGADZa6ZmJKr0MfD0N/X2352S1G+YVw1v81yt4UkO9o2Bbn5qht7Mifl0fM34zBbyXKzYrxW2dhcPkEyv6DlYJMaXdoiUuvAGbYh452asSynxT8cWUvd8qeEZBXzngH1NI4N22zDXU6OWL+dfhrr3K+E7GcgD1WIxQwd6PsKu6bTGl36CalFKBrWzEUQSNPs/k8XI/S8HpVQH7p6vf9HLWLjde3RszfX/C3cX0Vyq6PWLZB8CBcP4ey13LfZEq7U2/Qrm3PnukRysmgeW/D9a0R8Pozgs/NUbvYArs0Yv6r1bE9dG3rP9oiDiozcN0Tqx/G60ypd+g+buWTtQgdrYhN13qfUkY5//8mHK9Tni4ZbYORwNhyH/MSHKxXreH1z0R8zoqCqc3RfxwIP+WDlu2NhcCB1oXli9fJFLsCeo0nBE/R7l2sgjlI2CNXf9YHWDbT/wCTFF53/v8iOlvIcpsEoanQGaPg9UzWvQKrk11uExlBknlqVqY6RbBvk3OEtovJpf8YWGT1oDtNlClet6YJ/ro2qNUB8t2APjgLbdgH4ZH3Kl8Hpk7C684IaynvnVB8OcQjHBZMalU5qXcX2MP3mT2S6LxrS52JHel5Awp43Umz9R+jAsrU+QMYOHh9Wgp1HKD8GeRqKxWWMKU2wXsMN68UrZ8K3in4kcKqz/qypvupZfnsNLxO/w9FY+81L7sJXzZ40my8viZH9Z4SDlesG3F/SXy87urMIYJLp3Bq8cNceP20FOoorSQ/hh4mDf5hQo/ANeZzzCjUkiecMvWvecpjkCnNDv92v7MIHUtj29qPNcyGi/yB6R28fmMJ310eTj9b2b/j6gKkUpEGs/3KPdGYpxl1mhzxmS1+QXD0H3cY8p8v+BJPmo3Xd5UPXpeDlnFWr4Yv+P50AiYSlJypFMt5WV2W9kNMduN1J303Op1neUsOH+d50nrAUUbmH1bCd1+tDUoTYpa13YKfDMnTFn0LLg2CBhObo/94yJNeqxyRfPnvQf7WMupj1WYFJe2ZsJSFJpXfma/1hxsSlD8DK9Scc3AFF5udRZzl1XgPvjTNUKM1vF5Zwk70uPZxY+Bb0n7bG1U+H5Cnf0y8PtCP1136j02e9JvNSj/a5ZQSXs/8IGAPhClFRnVWYpZy3Y5dXvbjn+WfI+N1J93evdbgGTl7GvLednDwuvTwIww5P57W1nqX1ikGBOS5Kl5AQOsa8+rCendB2eSkvce8uSVtvJ55YX8EdR2d0vNOxGpvSY4CO5SssU8KduV0Doh/AP9/1D3Lu/JuLD1e71C9L8L7vhqMi51ZYmLEZz5YcC4K1H/0hDmuyYwpnfdKEa+TsnU2vmca3JBORFNqhz2Afz1YFju/0386eHOHs9Pr5wpvSa2xMd9BwusdqvcVeN8NEfB6Hw2TfyEEr4dECXX0H8NgUx4ekK8T8Lr1oYBgIkl5abBCMzY+lnX9XcD9GbwBKN1OvzR4c4dUwtmY1fpGsFOJY1//V2nxeofqPdasNHPua8E1nLTBwThQ+rOb8LpP/zFDtWVgvjLF67Q/f5An7auoq0lJWZev/RPZ/wBHhCufyCRnB6K/PiTfnBza148V/IaygRuXl2v953BZXwleudAy+ZoiS3z5vBeCtw1T8MEyxOskuK+gXiORVoEjiyy/vwbdv8Mfi42pI4qMH6BzjQjBVG+oZVbQjE127i3RYljTR58UsvW1b4nbYBE8tDS8KH0HyDpRj7q3IL0Wseg8tnwKhy0wvfVf+HtXF9F/jAqBAQ3a4FpGLqKk67FXfnVIm4LQXS+pGH2u/BPDVz+HrMyegu3hE6GHKeZXQqaFnYaD59oUtvPlf0Zpk11phyN9q+b3bfNrgv8i+DhPmZOV4w7FUNujvLp8H9hSATRKurJZDfPdWPhtt6pInnT/JuxjHwtBPsdTfgMGBL3+r5v92WmQM0S5oQCVf4UgWJ7D+rap1UTuO2k3KHDnQn8wuwCHaPPRVmWZoGAdjXCK6cLC7ZK3JrTfxbASbYYMnh5WsBL4yTNzBGlXAzXV3QO0yVXmAx9oN9mRuP+aCurgut8KJdZBUMhQmN7xUBh5Z+7+ysPN5FRD9TnKk1bj9yx0Zm6T23F18AEZ1MaVZdJhu2KH5CWqTV33ajEJjfN7a2ayLnKF9zeNXyjEc4j9rF4qlLrveTO0PHMNkZmPwWSwu7QTZPEKDVHKGJcyb4xHEORq43s8ijPlQNh7YHPRTA3CtiV8lvT/345nrITfSO/CIE8TSluA/8aXkp8C23mNU6G9fDP2aGtRZ8lvOkeRZpmYqN9O1SwKReIVGMuPAnw5EBwCzrEK7Q4obyllcjax216/qYWwslUEfzAxZa0/r4TFan/xeAVGfdECxG5EJGcjzKuA7mic4d5klF2WxcY5Cy/nVc6t4giqTDkTdAk9f4Hrl8MtLcby8FtxNu60JHgH+8jnC7PYQPZIpCloSGG4M9i5hYkpk8J+asGj1NmMFdERivZKALJaf0LZq2P+/hCsKB7OqOXCmdk1u76zzXQ6dyCmnOH1elw3Bscr8JXT9kW4nKgGxPhtqSD8I7T4WY7iQzbWp6DYaNY81YZwB2LKkbC3FvYHOCG0IliT5HZqe1+Ec876juizM5lqH4Xs1OShoWqh2KjE6PQiO1Ew5QyvP679P94cr8BX7gQVbNP5fwHKrYj4uxVQCs5yy0vmZneKny6dAD6ipZ2JZczl3IGYciTspynFmvP/cH+8AmO5e937IuLgdXJKanKHbXdm+uVZa6Db4RYJbELnyv3Z7xfNxJR5YZ+mTGbO/73c8QqMZSZ4HMnqouN1Wknc7Te/kYflBPdqIRsNNBhLkEuBWzbCX5yX70x5E/ZV/v38tN8jIJ6DjJjjdaeNg9edGAdBPD6rWP292LFTyZ2GKad4fZ0hfRMEr95w7y7D4BARr8uzHIqG9u7P34WJqXNWqPMN6Q8VgpO40s8OiNyc0L7OxMRUKmGf7sbrTrodwEWLVkTHb99n2EnZO5l9nYmJqZTCvroQgMOVbp8spEU+oshGBn952uYb077OxMRUSkHvasbrdM+OxrMZ/w/yL+mdvAvj2deZmJhKLeynK1u58V4/CPA+2L4bgz3cyOTMeJ2JKcPCfp0Zr9O9ai2c+q1qH4gxX+/ih5MwMTEdTEGvwJ6OkKi/FDzTUkq5wDy2a+12xutMTNkS8hocFdZSiKAcdNosHabS7o9LSPcqsX99PZ7zrArKyifNMjFlQdCPQ7z7dk9AyHZz1F8ZMVdGIvalyz3nf/c8w2YZMPKCtN/8/0N0YSdtDVm5AAAAAElFTkSuQmCC;strokeWidth=3;" vertex="1" parent="1">
          <mxGeometry x="590" y="690" width="251" height="66" as="geometry" />
        </mxCell>
        <mxCell id="EDvHVRj9FT189KZN_WVa-26" value="" style="shape=image;verticalLabelPosition=bottom;labelBackgroundColor=default;verticalAlign=top;aspect=fixed;imageAspect=0;image=data:image/png,iVBORw0KGgoAAAANSUhEUgAAARsAAABCCAYAAABn23KqAAAACXBIWXMAAA7EAAAOxAGVKw4bAAAOkklEQVR42u1dCbgWVRmWCwj3irFo7CDKgyiCbJIRYBSrIKuAIiLkAlQYsYlIBoqsAYJphshSimyhhggoIAaoWICSBoqApEbRkxiu7NNZ3pn/zH5m7k93/uF7n+d7nnvPMv/MOXO++c63nfPOIxAIBC0YlzMaz2g9o32MPmK0ndE0RtUcbTsxuovGjEAgRGEyP2T0BqPjjP7AqCejKxldIJmMcRujnYx6oP1VjI4y+j6NHYFA0GEylRgtZ2QwWsGoakDbCxm9zqgLowOMvmFUmsaQQCCEMZr6jA5CmrlZs09dRifAnF6lMSQQCGFMowWj/zL6mlGHiH1Xg9k8QONIIBCCmEUtRofBMAbG6D8OfX9AY0kgEPwYRQGjd8EslsW8Rj9svfJpPAkEgh+jmABGw5W7NWNeoyujLTSWBEJ6GUUxaXo2fiFN1YFtq7slD1H2FZjN3ELcx22kryEQ0stozme0mNEARg3h4zLUp+01jE4ymuconwlGw+nqQtxLCUYlaU4IhHQym4mMrlf+/0R6+Hq2neq2Fhl5jD5G+R4aTwKB4MU8yknHO+v/ymAaB33ab3Nbi4Sp25RqHqcxJRAIXszjZ4x6O/730bsIL9+TUAArOhtjtMJs+tOYEggEL2bT1x4WYLwJptHao20nb+9e4zGF2Vyl8Zt50lplVGFU3oOqyTYEAiGtjKc2ozOMDjEq7lE/HQxlgqN8kcJsLtb4naaI9t6lOACa9B9GOxhdRvNBIKSX2dyPBT/bp/7P3lKP8bDCLM6P8btvo+870hpFIBDSzmzewKJv6VFXltEp72hsY7jCbCpH/E0mQRmfo+9DNAcEQvoZTT6YyVfe0onRGQxhk0ddA4XZtIz4u02Uvu1oHgiE9DOby7Hgt/vU/wr14z3qikHPYsh2kX73PvQ7IZNpEQiEtDMbUzpZ68NM9qD+Op/+7aBcPupO8en7m9xzeS+u+xrNAYFwbjCbAmyhdnjU3Q6GwPPTlAq4xni0e1OasAN/j13HeF6a0UWfyWf7AYvTJKf25a3D6AZGvRg1dvtNcLGdkLA549ao04zaKpLHSMX3ZqPGNYYyOoaQhx+5t0bCj2YAcg4Pgq7o8FnQ14iIzi0QyY5A7CpDk5yal7UYnMR2yRdTBOfxzPl/RJ4T8yVuLPPNFtl9DkZu3MXSU9aiBSif6WjfG+XPONrPR/mCFM1hVyQlfwrj01mawgWzGad5jRrocwC6mL8y2ox3YCsiy8sp7ZtIySq7D1IVmdbn4eb/Rgs0NS/phRCLt8rM+a76mvDT4Jn1P2Q0pwjvtbpkfOLLa+a8/TsSN7WRzm229pWkb4lxK6NP0f5TbC/aej9vquZ2LwSDGNKokGSuAAMqigTmxhhM2GO0SFPxMp4PSWZdyJ7+Evhp8Lm/MQH3XR6LyJAxQTrbfssnZGqK5q8hpDSPVJyCyRryQ5KbD7cGD9CLFmoqXtYH8aW/SKPtCizwbyfgvrtEjOlpmk6fEL7DEM/0tKM8D1HeR3M0fEAkxzmKF64iLdScf1EvgrQyXbP9vXLvnoh7NxM+/Vvqm0Lbj0qnT4h4/tcY1XOUT0A+4E65+mDXZuIgCCl4Ue+Mti0S1oqEbJ8tR7Tlmu3NY0a2pmwOF9hPn+S6FW6KFgGZuXzKgfiy8Ql7hBZqKl7UGZhP3YPIfsnopgTctxnrw+/9pxrtub7ms3TG8HCLsDGL0e8ZLWH0EixG38r1B1uLCetJC9U2LvnQ2JeIsWhqRMvbKhS61aSVxVYew1ogUkry+XxBs30bec9FPt5dFf1LPY32zZT2bel9Tc7CKQ6z4jr4JiyVXzO+IIwvoK/xyXsh0hL+Blx2A+z9UDwK8+nTuN5zMg9qLjsGCr+UflDCvYwkRM/AhNwhhDHdB9+FxxlNgS8L79c8oB9XcD7LaCH24+MgQo9HTpLhMZ6hp7IIZyWDkWjd9yzc82FNfc09aH+cYniSM4lVsQi22A8SF4vCzJexy6dvbTCROkrZMjiJ1cCeGUplkUPjRLxT9xIxTnxfvBLOja0cdQXSD4W/4K5+lzJ6D8wh3+Pre8gnWO5a1NXxqOuIdI+jY35YdikM5zg+EsOT7X8iPFgjHKZmWVDpTKOETGBFeAfvdu/3xL7Q9FGY4/PS8q9zBUf5LeizN2OeFE5Z5ss9IOI9NsJCGJMluive0RNCQuP3382jjjvIPcroS7vFTviF7Ick5LPd4oxLXHeko3x1sCOd8IQdHXPeqyou7U46CMmrIEHvaXm45Rvwcl2vQV9TzpVkbQle9s9fKtq8jvoeHnWDpIemq/zH6PMnpSwPisZR0bdRwgt0fRbp+fCgM9c9mLlcd2roExSpx/gtyrqEXH8rpD7FN0IctfG7gD795XgWav7bQeJ814PpvJKc84A4g7fuqzO2l0F0O+lrksVsBmIytvnUm/qa027pxRJTvZL2zMV1R6VorDZ453K1SYibofOCfoDruMQW5VR4PJlwsuPX/7Vj28C3Sj/3lorEFrZVFp+RS58/UVI+crq7EIxsIJTRlbJwb2Yay0Oa7UeRviY5i6e4kpfCRxQ3vov6t3zqy/mU70a/JikZqwuUeJxuEfrdkonJCW07JLNFsEl05qL/JxTwg5HH5CxmsheWr+fwuzGDL21K6LVZuKe3cK3Fmu1fyJ6+hkub4mMwNQs0Isbvl0Xi8hwk+QAtlZehts9Djs1YLCLpgM7AvyEl6Si4mTVOCkXr0PaDGm37ou0Ze6ySMUzRPai0T24nIj1HuQhtr8gwuVhjdodyr9sKOf4VFH3NIM0PqelfMzEL898M+rNsbOGfiv6hEBLyhtwk+QAPYDLeC3jIdTG+5n3QZ2WKpMBGysJpHqHf9Ex0sjazMdxMQbxs/RF5v0dpd1rmn9He1rwUcRt0Iv7RrEI6moNF2qiQ499deWaNKGZxtrXZvg3tYop+AS3GZCzyqS8BS9TpaMpUYZHRjMjVvmZL7P2nZonujeYMJ9IVmC9vhJgTK4P9EY22g9D2S/s21rMttyQ9qViONCRIIamsinDv+ZCyliXgXZ1dCH1NAa31op9AM2bkHp/65qhXUg4a9cMXm2XV8NDXCL+R9jHutQecApdnieZHd+u2JIoxEfo0Rp9T4UpKS0G8xqH7ChC5LVN8HU2d0NII994+QWklTIX1koj6ms20zpPBbBYF+7xYuUkfdpQ1w995yKmhmEaFE98Z6Bi8TudbLvOj5OR4jXCb8z3b1ZcmfmsrYvqydAjptwntuitlnwVbm0QYAe9ztcb9L/FX9PtuoXcW/ZGqNn3NkIj6mgdpnSdj8Qz03+4Ij9cjqB+olK/KvHzCfd6QUoJVPxZf8QMe12xiZ1w5N175OP3PCGEAC+wKdyHNHQu2yHBmIZj0Grsbvlg0CwP63YitrsaJhsITmd/79zS3dF/oMbGzPu49lC2shnez7Uwj0tckZPEUwBNztaO8LpzeRmLC+qL8OulVarX7B+qHKnoEvjWbBC9aZa8s/DfWRbOGJHLMasMb+COfEIK7ZeStq7wP8seMd8f0iEx47yM3iUM3JpjNCR+HyhJwBByrcd91M9sQsR1s6NMuDz49R+Jtd7M+3qWVLdHJcD2buP95CrO5hNb5WZubkjKVhUhX0kfjKBgeSmB8AKtBdyS6niv1GWKiufnqRSSPXutIeDwavg/dYCnhwYJV4JOyBjFE3RD2vjL6EZ+JHWRuGXoCWe5mw5dmGMI2hgX0a4Tx3AKm1A+BhQcwRh6pOUWCpPZg4HOR4f56mV5BHKcxVjMgcTDal4Au7n3owO6AB3Er5KzZLreJOhHVZ3WMlyK/8DcOc/9pSGj3O9o/Cj+kkx4uAv+S9YQszk8jpLQYAX+qyZDeF4boJoWJsg1E8lqOumIyQY8QZT20+uKr3AsJ0R0ersJl/Cb/r2jOD3hZqYcRJuvW+tYtIeXdgH4tgsMBVJOxYOQ94OjXOppXrGBSFR1fpS7wyl2Bj8E0ucXSYV7/F6nbJy+yiEEr4SEB+Yy/+PiVTPHCb4oUofsV2h0eHhO4NX/Hcb090thhvfcvujMFCIHEkB9dAoGQRmaTB9eMBpBeP4zuiGtdq5JyAN0ZBCxfZrfcCn3eJmkIcfU3LdGNaV4IhHQzng3Y0sQ8WUGoUyah/9s+baa5Y/hs298YWR0IBEIuMZoCGGH6B+ef8u3fEXrEVeg/06ddLZmywyvESWQJMOS1CARCWplNW1g7W2DBfx6RUT3p8FHqGvH3y8MN4zCdmEsgpJvZPARjThXFEnexZt+JcOtoqlj9ouZ7mg49T2+aCwIh3cxmI6xyxeDnxpnGdzT6NcykvbB863bE2IKdzPjcEQiEtDIa6Gus/01P95Djd8S2aWHGNSBMX+N5jQbwcbqZ5oFASD+zaWdPmC8cTI1w73KRlaC5wngi6mt4ug/B2JTsBMJxtBTNCYGQTmYzSYYTWf+bKVSfCOhTU/az/m+qZCjQ0NcIq9RmGQpjK7/VHkxMIBDSxGw22j2oRTiMoWTK8+oz1+4FbOlrtmv8XnXET6rHPpXB+XHPuhkQgUBIA6MpcGcUEKdPGDLUwLNPX3f2TUtfMyPk96ogts7woWPRT4glEAi5wGzaZ/InWWVXKpHyzjgyHtv0iKNM1deEHTk0JCTH8kKaEwIhncxmsl1fI8pKKwnHLnXUzXKng7Dpa8rRmBIIBC9m84p3xLvxiTuBmMhJ5XE6RRR9DYFAOBcZTRm7f42tbjMYyJ34vxR8ajzSvFoJymbQmBIIBC+G0tGdSMyqM9P2wrzN2/Fkea52EfQ1BALhXGU2U/zzYXOlsZUKlqeFHefT7hrS1xAIhDBm82pARsN+YCJ/wdFFfpkMSV9DIBACGU09mRnPt765knGvdUC71aSvIRAIXsyhMvIEfwAHum7e+aitU1zn+1zHzKFtJpWfAoe9PBpjAoEYDXeo+9iRjNw8WsjjYAERxlDBUVYTJ3rs96F92Qyk/B8t01h6bhyFRgAAAABJRU5ErkJggg==;strokeWidth=3;" vertex="1" parent="1">
          <mxGeometry x="203.5" y="652" width="283" height="66" as="geometry" />
        </mxCell>
        <mxCell id="EDvHVRj9FT189KZN_WVa-27" value="" style="shape=image;verticalLabelPosition=bottom;labelBackgroundColor=default;verticalAlign=top;aspect=fixed;imageAspect=0;image=data:image/png,iVBORw0KGgoAAAANSUhEUgAAARoAAABCCAYAAACIGRmUAAAACXBIWXMAAA7EAAAOxAGVKw4bAAAOdElEQVR42u1dCZQVxRVlGRgcYGRxkC0GQcAQ1kCCgqIRRSCoLLIvbhAFE3YMIxpE2ZTIIjsDQUCToBgX0CAGzCCQiMYYFhViDMHIqCcQiBrBUTrVVbd7qrurf1f/hen/591z3jkz3a+q61d1va56W5UrRyAQCIEwshndxGgDo/2MjjP6mNEfGU1glCPxlme0htG3qN8IBIKOgDmP0XRGJxgdYTSD0fcZ1WZUkVEjRvmM3mTUBGXuhRAqT/1HIBCChExPCJdTjO5mVCEGbztGf2Y0jNE3jDZS/xEIhCAhMwkCYx+jhpplJjIyQGOoDwkEQiyBsQDCYi+jWiHK5TL6EmW/S/1IIBD8hMU4CApTx1I/jvJ/YfQp6WcIBIKfkOjK6GsIml5x1vEso2eoLwkEgkpAVGZ0CEJmawL1mObvsdSfBELmCoohjGZi+5Mn3Tsfvi6zGQ1lVEVRfoKkyO2SQDueJ/0MgZCZQqYZoy2MBjK6iNF4Rh+JCW80xuS/WjjQGb9nVOgqb/rDFEHI7E9c4BEIhEwTMrUYvcCohuv6QUavim2QUQfX7pJWLRI/181Y1++jPiUQCG5Bs4hRG8X13RAc06VrtzEqZrTaxbtCEjRXUJ8SCARZQNRl9FvFdTPW6BMIjhaue5UU/G+D9ysRckAgEAglAqI5o46K680gOI5p1nMS/G9r8leD7qcx9D41JWoYn/8NgUBINwF0BwTHk5r8xeB/WZN/KoIo35KElElnoRv6NY0BgZD5gmYDJv4dmvzWNuvpOJ7VVBI0D1DfEwhlR9AcxcRvrMm/F/w74nhWL0nQtKG+JxDKhpBpjEn/oc/9Vt44JO7IZ0BAhYxRMuai7PHYaSQIBEImCRpLP6PQkxhZwmHPc/07UoxT+5DPsyxWz1HfEwiZJ1AqwofmlRKHPH79RUz8nyvKDBQJrJT1FaDcSyHa0EnaNo2nMSEQMk/Q/Eia5O1wrQ0Ej7k6ud/F30AIEXNVo6wvh9EbqG9W8BbK9M8x3kFaCLNM21T+2Gwa8Ix7gSsgJ2x/RgPEslq11CaU8ji1hoPdLPz/bUabRTClsRgJxHOllcfzwcnCjeqMNkFwbEd8VAWFgJmHpORmLFW3FOhnjBGM9jA6zOi/3pgJQhq/uOfBP+J94W1qPMToEUbb8FK1Bt9gRo+XYjvN6OSnYpArVsf4KSaPH//CNB6zrjBlr8PkR8Q29wy+E+P4pOgTS+ho1Xu1MHVzH5lTyAX8BlYwZp19nCse4/Jk/7B6IoTcWAYhc4gmaEYImYsZ/RUvbZ7i/vcYHWB0I6Mv9P0zUtLWJoyudaU1MB3H+oo4HbdXKvdcNSfOrZLC8wNGgxhdJbL4E3z6urzQ//A+v6A0GjAJA7aSBiPtXyYzXuYf4osYk+9aaWJfEoF2t5fa01ODP0/iH03jnh4v5wsYsEHUF2k/li9hWayxx+YZ2P4VkXZbK5pioVsI5O8nCZpmNO7RfzFNs9p/MGAUPJXeY9kl3AfD+JWgSLT9ObR9jyb/4nCBhoTSHuAOGLB3qS/SfiwtXdvFmvyrhJKx1NttWsb+jbbP0SxzIFygIaG0B3kyBmwZ9UXaj+WOcFsJM7t9FEzbXDltbYO6a/DnIbLY5P8xjXt6vJybMWADqC/sPqkVfhvJNfp1YckL4YPAHasauVIxZostbeh2W16kD2ry941If08MqZ/pLwmmpvS+RmfiVIQ5cKuImeA0FNdP4utwoaLcKPCa3onz/V9+nrBnuXAySts+ysHh5wfEOcNcB2D6GKyN/dXnHporsJqYBzL7a03s/uDKzBfRb/kiJJ/7SNwFZW7nOH7DTCmz2t3p44DJnc8M4d+jxb+U9DPRG0TzC7uT0S4xKezri4VbMx+wg4pyY8UxD/zvluAb6fOMp9J7VcT9Tg7Bkcntt9EQAkFxZIVxPRygxigiaIdDiN+oKDcGofwKpytjWvxHZHAfCTlx0WcQliP1z1suFf3MiZD6mXfA/wTN72gMYh4G5V1xFoznC25Zm5a67tUXX3X7f8vn4pc+L4qlyGsQsn29Gd3D6GdJoCl6/heeNuTCM/qkejJyF+3N3rSI3K3/NKNHY9Sdj9XFFa4t1nEREOe7BTsS/1k8XLl/RBI2Mu2DZ22Ewv8d+pmDWA0GkaWfGUVzvPQH0Hxhf4cBucaHZyfu91csweXJMQd80xR1tMG9w3G0cZnmi6VLj8bRhvlo/y987i+U9AflJeF6EEIkhoclz8X6OcIAkESan9NjxLb2GEsSPPSrMuKa1khJk2RaHKH31NLPmEL7B3Dci0XTSD8TLUEzAoOxN4bextLP1HHd2+aaVEf9rRn2IeKr0rCPqsIFP8ZWxbgSehtJEBk3xO5bR/kdTt8WHuhWjFVND58y1wUHzIX6nS2wuvow8dMLuaJ6IuKoqiahbZazaKEm/xLSz0Rr3/seBmRqjCW2ISaR515N6e+rwPemTz2Wo9WQNOynntLEqx6i3EqUeVaDd4NXn2D7u8B/ievLhqRemc6tafvw3OVx1nG/1Pb5CbZHdhbVtZTtT55+hmenm4mscolSHP5IpgHGeDg9SfwAOYFNc58fOUVvGW1PqsnJ1c9EQtCMRdvPhCz3Ksqt0+Bd6l398K3NakbfKLY1u7xn9wQ+I0TEPQ8+TODgd3uraSQe9e2Ib+qqqXM8G9swEer53aBeSMa2PY44QZ4KYnt6kvgBDwTrTWz/mX4BK6NPMbiKr62ZoCedo75tZ8UvQpZ7HeXWhxA0qpWjGUX7E1jtjkmT7oS4p9WWBmolvS+/ZUH8TZx9Vgdm+E2Jb+/s/j8jjBOB/P2iFQhKW6cNsSeCvWQ9G6DMbF9irVDen5BY1Df37ZmbJJojcquEev5Q6cUN4XNibxd1tk7rwbsN/+eIJbuSt63QVXD+TSF+w/QQbb/MX7F/zt9T62P3mib/Y+D/iOZ4NATNZk39jCRAjEuFktPBd3vs8ATb0WpwnO2cHZD0KCxND/n8htJSPEQSZzOfKi/zJw3e7c6JzRWzMQQUT1i1XyiLtdpSoN7W+vJPwW9uXsrvqKyfmalZxtIvbaA5Hg1BsxYDcpvP/Wle/Qy3Sri8UXkmL0P4unjqyJJelHpp3Fdb/ZM/O/hGi4RLthLvM5hkzw8QGqZD35cl2wyeLvF/wvTtW+5ewaPV/sNC2GjxVkGumvUR6PcO0mryOg3+2pJOayTN8WhMnlsxIOMU9y6SFLijXKsTV4gBd+4yhB7BU8/NuPdemvdVK5i4i5zWNgdPJSgNpQPVbf+PqTHqvhM8UmJpLmgCJgvX7O/U1M9YOp08Df4lEDR5Eej3yVK4hIaZnGfcI/1MxCZPDl6oza7rTaBfsDLqDcf1jmpTJT8es9j7BeTnxhShjhUZ0F+9serY6lVK8pXbOrVVhB+PcVp4TnvuXQlnvdVOT1xb0Hzs45d0Afq2m0a7h5RYf0w9h58A4b4vpn7jn+EtWinp72pStv0PNDL0m1a6LZJjXyWa4ykbmyykSr0dwr1uUAHTuvB3mCNvwJELq4UplC+htyMbWx9MsNo+9YyEY18+/E4eFFYOW/eQIVn5uCt8IQR0Ps7MmSoOSlcJErvcAMRJmZaYW+AoaSqA/1YiyB38LWDJa4UyszCgPRCOsUesFrXavKpk+2sMgyBZBAHUGT5Q98AzeaPGS5PqPt6D8IgzLpP+GTiFuvqLfxSLsOqR+YtFZkAz9ISQxPFpC1kwGRHy8yDYC4QawL9gNnwFBnndtbnp+hpMqGoBDagBYTUCAiwbOoqv/AVU2nZ2YwjfYVjpVQgxSAPR1+38v9J8tdnCtcK5BdajTuG+1nz7Vln6PxdfouUwCDyND0PLiPRtrnqbxLemNRVHgVRTO1JyRXJN/zONMuI97CycZD30wzjruxlZAdz1tZbm+BZFTOTgcFbQ8A2r4O/bYB8E/gx9BQiElMy/ighu7oBI/yOYcw/FUVc9bK0NWBxHeU9C4MaOV7zWSB4zaUXLt072jzRXLLuxRFXpHwqxmmlFLwSBkHKhUyh5ZMcResFDXOYGhBJZ9S9Q3NuIeyNSsWyzpF9H173h/iZvAoGQ5LlYAxbhMZh3u0OW74Htj5XJ4WEfvksgjBQWPTvkpnuyf9ylsAp0Ugigz8WJhwQC4RwImpugnL0ek70oRNmq0NdlSSfRhszZxAXdKRgwqqXiB65E0GF9mLNnwJJCuYUJhHMnaBZAT9NU2mXkaJadDePGZZK1Ljfk8+fimam0LptLJW5+nYHjU6vQwBMI51TQFEIxXEk6AljDF4pngByPv6ei3Oshn90NwmkcjQOBkLlCppbQz9j/H4HA6BVQLgthSFZWxwD9jLKOlvBhGkbjQCBktqDp7QyYtbM1jg0oN6kkSDge/QxXDO93xj7yerJpTAiEzBM0C4V+xv6/wN8EbfM0cmYrDKuf4cm4dnqPGOIOrL1pTAiEzBM0O52Bzjyq3xChGb5lCpzWIVs/o5PSpAHCPlzZMk1vYZ6GpTmNCYGQWULGpZ/h1wYFJKIbrsgpZaVBmRvwvAulPOMqOp3ZIR8EQtkUNH28Cc34cTQ4GNDDX1tE6DuuyfqZHgHPGx2QE3ktjQmBkHmCZpFTP2MLE2uFUUfB7z5l9fL4/WcIBEJZEDSvqc+6t7NaSqFBPB2IIpEaT3eiqZ8hEAhlTcgo9DP2vbecebp5APQqdVoSXf0MgUAoi4Kmr3/CeX7MjSEsUPz/6WpPYYd+pjv1KYFAcAuJx7z6GfveIxAeBfDezffhk/Uz1alPCQSCW0jsUutn+D0r4f0fkFLXx1s3jP8MgUAoa0KmXWzhYB5NwwXI1yIBvi/fy6SfIRAIbsFQAyly34dupYs6XzVPwWkIBbCynizkArcSwN9HWycCgVAOJ1WcAB3F6SXHkGyqqUKQ7PWeQWYe3cNPhvgE5WU6gZM6kubZ+3+XUFCxBMLA5AAAAABJRU5ErkJggg==;strokeWidth=3;" vertex="1" parent="1">
          <mxGeometry x="203.5" y="122" width="282" height="66" as="geometry" />
        </mxCell>
        <mxCell id="EDvHVRj9FT189KZN_WVa-50" style="edgeStyle=orthogonalEdgeStyle;rounded=0;orthogonalLoop=1;jettySize=auto;html=1;entryX=0;entryY=0.5;entryDx=0;entryDy=0;strokeWidth=3;" edge="1" parent="1" source="EDvHVRj9FT189KZN_WVa-38" target="EDvHVRj9FT189KZN_WVa-47">
          <mxGeometry relative="1" as="geometry" />
        </mxCell>
        <mxCell id="EDvHVRj9FT189KZN_WVa-38" value="" style="rounded=0;whiteSpace=wrap;html=1;fillColor=none;strokeWidth=3;" vertex="1" parent="1">
          <mxGeometry x="180" y="580" width="330" height="60" as="geometry" />
        </mxCell>
        <mxCell id="EDvHVRj9FT189KZN_WVa-39" value="" style="rounded=0;whiteSpace=wrap;html=1;fillColor=none;fontColor=#ffffff;strokeColor=#001DBC;strokeWidth=3;" vertex="1" parent="1">
          <mxGeometry x="180" y="110" width="330" height="90" as="geometry" />
        </mxCell>
        <mxCell id="EDvHVRj9FT189KZN_WVa-49" style="edgeStyle=orthogonalEdgeStyle;rounded=0;orthogonalLoop=1;jettySize=auto;html=1;entryX=0;entryY=0.5;entryDx=0;entryDy=0;strokeWidth=3;" edge="1" parent="1" source="EDvHVRj9FT189KZN_WVa-42" target="EDvHVRj9FT189KZN_WVa-43">
          <mxGeometry relative="1" as="geometry" />
        </mxCell>
        <mxCell id="EDvHVRj9FT189KZN_WVa-42" value="" style="rounded=0;whiteSpace=wrap;html=1;fillColor=none;strokeWidth=3;" vertex="1" parent="1">
          <mxGeometry x="180" y="50" width="330" height="60" as="geometry" />
        </mxCell>
        <mxCell id="EDvHVRj9FT189KZN_WVa-62" style="edgeStyle=orthogonalEdgeStyle;rounded=0;orthogonalLoop=1;jettySize=auto;html=1;entryX=0;entryY=0.5;entryDx=0;entryDy=0;strokeWidth=3;" edge="1" parent="1" source="EDvHVRj9FT189KZN_WVa-43" target="EDvHVRj9FT189KZN_WVa-59">
          <mxGeometry relative="1" as="geometry" />
        </mxCell>
        <mxCell id="EDvHVRj9FT189KZN_WVa-43" value="" style="rounded=0;whiteSpace=wrap;html=1;fillColor=none;strokeWidth=3;" vertex="1" parent="1">
          <mxGeometry x="920" y="50" width="230" height="60" as="geometry" />
        </mxCell>
        <mxCell id="EDvHVRj9FT189KZN_WVa-51" style="edgeStyle=orthogonalEdgeStyle;rounded=0;orthogonalLoop=1;jettySize=auto;html=1;entryX=1;entryY=0.5;entryDx=0;entryDy=0;fillColor=#0050ef;strokeColor=#001DBC;strokeWidth=3;" edge="1" parent="1" source="EDvHVRj9FT189KZN_WVa-44" target="EDvHVRj9FT189KZN_WVa-39">
          <mxGeometry relative="1" as="geometry" />
        </mxCell>
        <mxCell id="EDvHVRj9FT189KZN_WVa-72" style="rounded=0;orthogonalLoop=1;jettySize=auto;html=1;exitX=0;exitY=0.75;exitDx=0;exitDy=0;entryX=1;entryY=0.25;entryDx=0;entryDy=0;fillColor=#0050ef;strokeColor=#001DBC;strokeWidth=3;" edge="1" parent="1" source="EDvHVRj9FT189KZN_WVa-44" target="EDvHVRj9FT189KZN_WVa-1">
          <mxGeometry relative="1" as="geometry" />
        </mxCell>
        <mxCell id="EDvHVRj9FT189KZN_WVa-44" value="" style="rounded=0;whiteSpace=wrap;html=1;fillColor=none;fontColor=#ffffff;strokeColor=#001DBC;strokeWidth=3;" vertex="1" parent="1">
          <mxGeometry x="920" y="110" width="230" height="90" as="geometry" />
        </mxCell>
        <mxCell id="EDvHVRj9FT189KZN_WVa-65" style="edgeStyle=orthogonalEdgeStyle;rounded=0;orthogonalLoop=1;jettySize=auto;html=1;entryX=1;entryY=0.5;entryDx=0;entryDy=0;fillColor=#0050ef;strokeColor=#001DBC;strokeWidth=3;" edge="1" parent="1" source="EDvHVRj9FT189KZN_WVa-53" target="EDvHVRj9FT189KZN_WVa-48">
          <mxGeometry relative="1" as="geometry" />
        </mxCell>
        <mxCell id="EDvHVRj9FT189KZN_WVa-53" value="" style="rounded=0;whiteSpace=wrap;html=1;fillColor=none;fontColor=#ffffff;strokeColor=#001DBC;strokeWidth=3;" vertex="1" parent="1">
          <mxGeometry x="1500" y="640" width="230" height="90" as="geometry" />
        </mxCell>
        <mxCell id="EDvHVRj9FT189KZN_WVa-74" style="rounded=0;orthogonalLoop=1;jettySize=auto;html=1;exitX=1;exitY=0.5;exitDx=0;exitDy=0;entryX=0;entryY=0.5;entryDx=0;entryDy=0;strokeWidth=3;" edge="1" parent="1" source="EDvHVRj9FT189KZN_WVa-54" target="EDvHVRj9FT189KZN_WVa-68">
          <mxGeometry relative="1" as="geometry" />
        </mxCell>
        <mxCell id="EDvHVRj9FT189KZN_WVa-54" value="" style="rounded=0;whiteSpace=wrap;html=1;fillColor=none;strokeWidth=3;" vertex="1" parent="1">
          <mxGeometry x="1500" y="580" width="230" height="60" as="geometry" />
        </mxCell>
        <mxCell id="EDvHVRj9FT189KZN_WVa-75" style="rounded=0;orthogonalLoop=1;jettySize=auto;html=1;exitX=0;exitY=0.5;exitDx=0;exitDy=0;entryX=1;entryY=0.5;entryDx=0;entryDy=0;fillColor=#0050ef;strokeColor=#001DBC;strokeWidth=3;" edge="1" parent="1" source="EDvHVRj9FT189KZN_WVa-67" target="EDvHVRj9FT189KZN_WVa-60">
          <mxGeometry relative="1" as="geometry" />
        </mxCell>
        <mxCell id="EDvHVRj9FT189KZN_WVa-76" style="rounded=0;orthogonalLoop=1;jettySize=auto;html=1;exitX=0;exitY=0.5;exitDx=0;exitDy=0;entryX=1;entryY=0.5;entryDx=0;entryDy=0;fillColor=#0050ef;strokeColor=#001DBC;strokeWidth=3;" edge="1" parent="1" source="EDvHVRj9FT189KZN_WVa-67" target="EDvHVRj9FT189KZN_WVa-53">
          <mxGeometry relative="1" as="geometry" />
        </mxCell>
        <mxCell id="EDvHVRj9FT189KZN_WVa-67" value="" style="rounded=0;whiteSpace=wrap;html=1;fillColor=none;fontColor=#ffffff;strokeColor=#001DBC;strokeWidth=3;" vertex="1" parent="1">
          <mxGeometry x="2010" y="380" width="230" height="90" as="geometry" />
        </mxCell>
        <mxCell id="EDvHVRj9FT189KZN_WVa-68" value="" style="rounded=0;whiteSpace=wrap;html=1;fillColor=none;strokeWidth=3;" vertex="1" parent="1">
          <mxGeometry x="2010" y="320" width="230" height="60" as="geometry" />
        </mxCell>
        <mxCell id="EDvHVRj9FT189KZN_WVa-79" value="" style="shape=image;verticalLabelPosition=bottom;labelBackgroundColor=default;verticalAlign=top;aspect=fixed;imageAspect=0;image=data:image/png,iVBORw0KGgoAAAANSUhEUgAAAKwAAAAhCAYAAABEH0DeAAAACXBIWXMAAA7EAAAOxAGVKw4bAAAGYklEQVR42u1ca2wVRRS+LdZapKXEF0GoEZu0ilKRCGJBU6mvoqJoTKgYFatUSAoqRlErKoKIkYgYghghgIJtNK0tPjGRH0YLikpiDWJ8JqjEgMRqUBHGMzPfvcx9zO7Mvcu93e1O8iW9u9/O7p49M/PNmTONRLJe2NmE3wgvRcISlt5f2DICI3SHtgiLHxz2Gzjs3T5+hxMJ/cJv2fs+TDWhk7A5TXQQzlLqOxPO+gdhoI/sMJ6wnfAz4V+8wzgN91hCSwY2e4fQEADfudzlPblf5Sn8SS78dpOblhAuJEwm7MSH4vrzMsLoBFxAuJpwB6GVcBj8kUp9c3HsOZ8Z/zhCJeF2PP8BeUzLH0WoI6wBn+P+FDYbDVveTFhM2AfuwgA4bH/ZWbGJyqi6lzCFUEUYnMA/HvxawneKr10L/inpDuWrDPkPgl+qHPsAjlzh416Dyfcw4i8Ef5+ZhBAjEO/B7wzYSP2TXUfFfgF/abo3PFXpKeoNrzmNsF/5PRAfo9PHhl8EGzxiyP8Q/HaLe3TJhhEYZz1d8Z3rDPgVCv+qdG9ar1QyxPCaQsIO5feNuL7Wx8b/CO9wkeGQ+A/4cyzu0SZ72sA47HTY4LCcrLryZ4D/X/zobHfTVahkp8U1JfG9KVtL+DJeaPvK8AMwQrjo1xj/UqWRn2txn7eknguMw66FDb4w5G8Ef1smN92FSl7QnC8g5KcYCqBZ+Dm2R07IfGv4K2CD9w35TygTjXz9KJR0rCNg+vUH2OFZQ/5u8Jd4oV+najiPJ0+kWBGhDH+fRNgih0nfGJpr7mLl95OwQbOlfm3TnD+H8HCK45UBctbhlvq1UuFPSvemN7nrV/Fx8gJg4DwZAxUTHy6DlsslZBFy+Rg2GG+pX2c7TOAujgS6WOvXu7KgX9ksGXf1vXGpN2VvE74iDFWOTyCsJxwk/CUXBlzrqlUaeVWK8+WEX820sK9tus5Sv7Z4qV+3yvigQBNhAVYgeOuZ6XPDFiJGvJ8wLMX5Tthgs6V+5U7eCJs1SjkheuweKZE8e/5Fcn7hGWo8eq5o/PVPwrcG+Bv8p73Qr2uwWsMxH0ks0cWEET532CXO+Q08gC3OP2SpX7crNpuH+7yHc495+PxzsVLmFcZ68ExnKL5TZ6lf69K9qYt+5b2RmP3nWL/yZT72KjDY8lq+unQI4apiDacLNqi21K+a+KuI59ZEAl1iy9iGelSMQFF+unkm7EUX/Tqsd+hXMTmKNqzlltdG1/s7HLTtQQxrBQb1GcRfhfwoCrjDrocNPjHkbzwiPTPXr7r468T09avoFc9DQnfCOjs72bKuZsVJmi2uK4Bu5dfdouFcifPvWupXp/jra5HAF/ajnR6NxV+f8kK/6uKvRamD34510guwz5HRNR8x3DfkkCA4t+kbiKPjzQIKLK4bq7zjUA1nMc7Ps9SvbQ6c0oA7a7ldPkBc/kDa+nWaff6Atq58GSRnv6M3LNZMHF7B8FufJcNej/fb7cDpcs5/1erX2Vl0kEzyb1Phhgyfp8FSv85QoiolR0m/GtdThLDQXuekERG03+ZNA7FulFtc9GvPkZ6b52Xqhq04/VqVRYedooQcvUC5R/r1U0P+Bi/0azRktTKDOvphuD9ktqrD7iF8ncUPPcFl+bQ+OX+Aa11dD2SiX/tCienXZ7KlX8vs819T1vOAXSIDX2+21a8ZGbYQYbkULVvk83bj+Z9XjrfqcyJi6YftfdhZVT06+SjqV7ENpAJbYlqVShbI3pEvDrBBFvUNQSjogEx+MbqmRm4ZyaqBp2MEGJkwGXsdGWf8HVYrx1ckyJgybHVpQj3YkSB2J4zST+YC5aT94TvVsrHGfIfPS8Ykb28RqZpkb3YJYZPCn0M433A7jNBzbmJ8Zhq96zofGPxWwmfSMdnLiF5gnV/sueqGpt8QH9QWzupms5Y+4LANLjZYlsBvdOEvzcVLRLObpvnI8AOce5GwBLnV7YHDajYcitjpuBS7SMeEtgtLLhy2J3nXbNx5Os7ulUkg7Htw3/R/5ldY/OqwO+CEBskofL1ZcIeHdgtLrhz2UTjhNS68QVgR2RXaLCy5dNhSJPDy2OQxDrwm5wSbsIQle047Av92ZpMMxCfOyEVi82r8z6qpob3C0huclq/H34cspq3IK2hFHir+qYZYrDghtFVY3Mr/qfa0OYo9HMsAAAAASUVORK5CYII=;rotation=44;strokeWidth=3;" vertex="1" parent="1">
          <mxGeometry x="1750" y="270" width="172" height="33" as="geometry" />
        </mxCell>
        <mxCell id="EDvHVRj9FT189KZN_WVa-80" value="" style="shape=image;verticalLabelPosition=bottom;labelBackgroundColor=default;verticalAlign=top;aspect=fixed;imageAspect=0;image=data:image/png,iVBORw0KGgoAAAANSUhEUgAAAKsAAAAhCAYAAACmw1unAAAACXBIWXMAAA7EAAAOxAGVKw4bAAAGuElEQVR42u1ce2wURRgvFdFqLRZQoxV8VDRQTTFoFSQGPUzBYuEP6itaWnkIhPgi0ZKKIgSiEF+I9RGtkWp8RUF8UIva8oy2RlGhAgaljagxESTGWqQ6frPz22Nu2d2b2bveY28n+SV3N983s/PttzO/+ebby8pKaGF9CE2E7YRTs4ISlNQtbDSBASMDewQllZ11KRz1WzHL+mJMfYP7GpP9ziCUEioI5YShDnIj3Bq5gPBcjJhsafNrOOttaWzcFwithL2ELsI6F9lQHGx4qQ8d9BTCXYQ2wl+EzYRVhOcJG4BiSf5yMcE5N9ifMJFQTfgSTtZDmEsYTxgngX+/lTCP8BrhMOTvldobTPiP8Bvh+DQ29EWECVgd+BgXucgWECYRbif8DPnfCZWEayw2LCNUEWoIjRJdutZHTnos4W7CH4RdhBmEPBu5IkwIV8FvfhGThFonTTDcFkX5MsjfKP02C78t9onhWzGeqxXlTWd9VlG+BvJFPrHXWYRtmMgWRZ+w2OmEb6DDxGSo9jT8qe9oxjI5Svr+HuEfwpk+MPxJMHo3IUdB/nxpprxBsY88yOf6wF4lmB27BS9V1rtHstsQFYVRkkJIo6MtYhk0PueAm7zik1nCXDlaFOVnQJ7ToNP0Hvi0t1UxJrseQRe1dAtgtx9UFeZD4RDhBI2ONhKyLTe3xCfOugzjWago/yrkd2j2sznN7UQPJuvA2B/w2AZ39JdUhU2yv1Gzkw+lz3XqfDctbkIbbDJWUX4f5J/W6IM4HVud5nb6CONuF3TSUxvtYuOpx1cddr38htnxML6TC39uJkzxiaP2x5L2twe+WuEgM0dEGSJ+O04coqStncqlcU+KoZ09hHN0+arDrpe9KGKyru2k4QEAPw42DjEaEQNsgOOZlKZZsZ2Z0fkq576sn49WnmMIuzHuXUfooKe2HlQVNMMnDrte4+Dge/+cRoXHVYp48JIjyxcbSPhUhJ4MmygaMcxXtzvUTxChQV/ZLyRNcrWJ6tTkqzstAWwe6L4fscPXfWbo8dhMPmFTx48E/4VNrtTkq+ssNiRaxB4FzaqN44xWidk8XvBwgmacvJnOemEibprMV78ivAmsxrJ1EHWzfOSoQ3C60mEf+QiHUroEp9Tiqy2SDdfiiLEbdWPidP0n4v6sjyPmergO8wDkQGwUQL1Dma+Os6kfAGcelkLO1gdHlrREs0Ee9N/HeOc51Jt89RPF9qLEV3nmmRF/9hNfHST5TWOiOq2JHl81ElNSiK/yqETYUGs1dUdKug67T7Yc9Qs0+Wq7Qz1P6PjYZzRqmGTHpxR1+FH8wxIeItwHqsm/36zKVzc51OelHl81QkBML48hrPsk9L5wkWnTW7bDfLXOoX60uCG+dVbFgwB2Hfgxv38fSPrNcOQSVb662IUfKZBndq70xCzAE8OfnNmW3aMpMx8ySzwcz+Vgt94YJf/RTve7KOM146uKy3YEX73eQWawyOf0lbMO1HfWCP1KSX+oLl8NxXjx/RDiWon21hAujuRwhiMUIZ+AwZmH26eP9RrXPYS+yxxkJqJ+vWKbM73lA8Q0jr6EO/GwxwtjPVxHp/uK4qpbB90OVQWP+QCubTZEz880duE9iXPScL+5Gny11uKQuVH46o4EjoOvLPVS1CEeqPJwHc9g7Ns86O6E7ird+OqGOBqyE2l1Do7IzkafrUmKInSh/xyXzaSFr3J+5djmT5BfmZVxhS/f4QT8Yg294dKkMU1FQSEfQPviz0N7n7vITIXMsiQZ2Ey6sAsxVUtGxMPGCgkrFPhqRVZGFiPBmo9/q2JMmlOYdyW7Fap0MlVSqIrThU9He4+4yNS7c8ZeN24I/NISJuFvO/DTLJ5FZtRjc8UeJ1xm0062lELIcUmGOmu2dE+bROa/o2wB9jILcaTdGW0HxnfDv0pGNsFn2R8Jj/UyX90DvnpyEg08F8t3NY5W68WGxagbQdgv3itjdxyd7mdsCndDxmrDA6ibk4FOOx0nWgcRqZkiHmB2BeEW+MYmkSNhyI8RLw6679jz7adrvsFyqtPmq287kHhzCW5LAePyd39uQuxvgKUuHzNt6OjDEGNzk2//arbxGkx+5r62bdhmMmLZa7AnasBGvsTGlsk6aArz1a0uMtXJ5atBCUokX13qIvNycvlqUIISyVdLXWT2Jp+vBiUoItB/WPA22/rC1OGrQclkRzUd8TMXmWmQWR7YKyjJdNbZ0R2RvQGZ8sBeQUmGk9YgG34f4o78vPcdkcBihiaMl/Ba8N9P+/F3PG/FLxchKH4r/wMVta7es8vltAAAAABJRU5ErkJggg==;rotation=318;strokeWidth=3;" vertex="1" parent="1">
          <mxGeometry x="1810" y="547" width="171" height="33" as="geometry" />
        </mxCell>
      </root>
    </mxGraphModel>
  </diagram>
</mxfile>
